<svg width="64" height="74" viewBox="0 0 64 74" fill="none" xmlns="http://www.w3.org/2000/svg">
<path fill-rule="evenodd" clip-rule="evenodd" d="M0.184448 38.0565C0.853948 36.9598 0.792148 35.6683 1.11145 34.4793C3.85125 24.3728 10.1342 17.3208 19.7133 13.1285C21.8454 12.1958 23.6684 12.821 24.4512 14.625C25.2134 16.388 24.338 18.0588 22.1544 18.9915C11.4629 23.563 5.36535 34.0795 6.84855 45.3853C8.26995 56.199 17.025 64.9115 28.252 66.6745C40.6635 68.622 52.8998 60.8833 56.4327 48.86C59.9348 36.9188 53.8784 24.2293 42.2702 19.1658C41.714 18.93 41.127 18.725 40.6429 18.3868C39.3966 17.5258 38.9949 15.7423 39.685 14.4098C40.4472 12.9338 42.0952 12.288 43.7741 12.9235C49.5421 15.1375 54.2389 18.766 57.8748 23.727C71.4605 42.2283 60.6352 68.8168 37.9545 72.7118C20.0531 75.7765 4.14995 64.8808 0.586148 47.1278C0.503748 46.7383 0.720048 46.2155 0.184448 45.9695C0.184448 43.3353 0.184448 40.6908 0.184448 38.0565Z" fill="#E74C3C"/>
<path fill-rule="evenodd" clip-rule="evenodd" d="M34.3187 0.449276C35.6474 1.45378 36.0285 2.75553 36.0079 4.41603C35.9255 11.2323 35.977 18.0485 35.9667 24.8648C35.9667 25.5823 35.8843 26.1973 36.8731 26.4843C42.3527 28.0628 44.8762 32.1218 45.9062 37.3903C46.2873 39.348 46.2049 41.3263 46.2873 43.3045C46.3388 44.432 45.9268 44.6575 44.8865 44.6473C37.9237 44.6063 30.9712 44.6678 24.0084 44.5858C22.5046 44.5653 22.3192 45.0368 22.5252 46.3693C23.7818 54.5078 30.1575 58.1363 38.5005 55.4098C40.3854 54.7948 42.0643 53.7698 43.9183 52.5603C43.9183 54.149 43.8874 55.502 43.9286 56.8448C43.9595 57.552 43.4754 57.8083 43.0016 58.0543C37.2851 61.0678 31.342 61.611 25.2856 59.2843C22.0514 58.044 19.7957 55.5635 18.5082 52.3963C16.2319 46.7793 16.0156 41.0393 18.3331 35.3813C20.2077 30.82 23.5449 27.6528 28.4168 26.3715C29.5395 26.0743 29.5704 25.5003 29.5601 24.629C29.5395 17.8128 29.5807 10.9965 29.5189 4.18028C29.5086 2.56078 29.9103 1.30003 31.3214 0.439026C32.3308 0.449276 33.3299 0.449276 34.3187 0.449276ZM31.6819 40.045C34.329 40.045 36.9761 40.0553 39.6335 40.0348C40.0764 40.0348 40.5708 40.2295 40.6944 39.4095C41.1785 36.0988 38.5932 31.886 35.3178 30.7688C29.6425 28.8418 23.1329 33.198 22.6591 39.184C22.587 40.045 22.9681 40.045 23.5758 40.045C26.2744 40.045 28.9833 40.045 31.6819 40.045Z" fill="#E74C3C"/>
</svg>
