<svg width="310" height="82" viewBox="0 0 310 82" fill="none" xmlns="http://www.w3.org/2000/svg">
<g clip-path="url(#clip0_2_141)">
<path fill-rule="evenodd" clip-rule="evenodd" d="M1.96417 40.8565C2.63367 39.7598 2.57187 38.4683 2.89117 37.2793C5.63097 27.1728 11.914 20.1208 21.493 15.9285C23.6251 14.9958 25.4482 15.621 26.231 17.425C26.9932 19.188 26.1177 20.8588 23.9341 21.7915C13.2427 26.363 7.14507 36.8795 8.62827 48.1853C10.0497 58.999 18.8047 67.7115 30.0317 69.4745C42.4432 71.422 54.6796 63.6833 58.2125 51.66C61.7145 39.7188 55.6581 27.0293 44.05 21.9658C43.4938 21.73 42.9067 21.525 42.4226 21.1868C41.1763 20.3258 40.7746 18.5423 41.4647 17.2098C42.2269 15.7338 43.8749 15.088 45.5538 15.7235C51.3218 17.9375 56.0186 21.566 59.6545 26.527C73.2402 45.0283 62.4149 71.6168 39.7343 75.5118C21.8329 78.5765 5.92967 67.6808 2.36587 49.9278C2.28347 49.5383 2.49977 49.0155 1.96417 48.7695C1.96417 46.1353 1.96417 43.4908 1.96417 40.8565Z" fill="#E74C3C"/>
<path fill-rule="evenodd" clip-rule="evenodd" d="M177.981 78.4638C176.941 78.0128 175.88 77.6028 174.86 77.121C171.286 75.44 169.452 72.6008 169.164 68.6955C169.082 67.6398 169.463 67.445 170.369 67.6193C171.07 67.7525 171.791 67.855 172.501 67.9268C173.943 68.0805 175.117 68.2445 175.488 70.151C175.849 72.0063 177.631 72.857 179.382 73.3593C181.885 74.0665 184.408 74.0255 186.901 73.3388C189.96 72.488 191.783 70.3663 192.421 67.3528C192.895 65.1183 192.906 62.812 192.813 60.188C190.619 62.3918 188.353 63.9908 185.469 64.3905C179.773 65.1798 174.963 63.673 171.543 58.8248C166.908 52.2443 166.805 41.6458 171.286 34.9628C176.117 27.7468 186.262 26.691 192.411 32.7693C192.607 32.9538 192.73 33.21 192.978 33.5688C193.585 32.6668 193.4 31.8673 193.328 31.1805C193.184 29.8173 193.75 29.5508 194.996 29.5713C198.849 29.6328 198.849 29.5815 198.849 33.3843C198.849 42.5683 198.849 51.742 198.838 60.926C198.838 63.2323 198.622 65.5283 198.251 67.814C197.417 72.9595 194.306 76.096 189.517 77.8283C188.981 78.023 188.569 78.31 187.91 78.4638C184.614 78.4638 181.297 78.4638 177.981 78.4638ZM193.276 46.8015C193.297 45.2025 193.204 43.624 192.864 42.0558C191.824 37.2178 188.271 33.9378 183.862 33.7943C179.691 33.6508 176.127 36.3773 174.85 40.8668C173.665 45.0385 173.768 49.2513 175.087 53.3718C176.343 57.2873 179.701 59.655 183.656 59.6755C187.622 59.6858 190.866 57.3488 192.298 53.4538C193.091 51.291 193.318 49.0668 193.276 46.8015Z" fill="#E74C3C"/>
<path fill-rule="evenodd" clip-rule="evenodd" d="M36.0984 3.24926C37.4271 4.25376 37.8082 5.55551 37.7876 7.21601C37.7052 14.0323 37.7567 20.8485 37.7464 27.6648C37.7464 28.3823 37.664 28.9973 38.6528 29.2843C44.1324 30.8628 46.6559 34.9218 47.6859 40.1903C48.067 42.148 47.9846 44.1263 48.067 46.1045C48.1185 47.232 47.7065 47.4575 46.6662 47.4473C39.7034 47.4063 32.7509 47.4678 25.7881 47.3858C24.2843 47.3653 24.0989 47.8368 24.3049 49.1693C25.5615 57.3078 31.9372 60.9363 40.2802 58.2098C42.1651 57.5948 43.844 56.5698 45.698 55.3603C45.698 56.949 45.6671 58.302 45.7083 59.6448C45.7392 60.352 45.2551 60.6083 44.7813 60.8543C39.0648 63.8678 33.1217 64.411 27.0653 62.0843C23.8311 60.844 21.5754 58.3635 20.2879 55.1963C18.0116 49.5793 17.7953 43.8393 20.1128 38.1813C21.9874 33.62 25.3246 30.4528 30.1965 29.1715C31.3192 28.8743 31.3501 28.3003 31.3398 27.429C31.3192 20.6128 31.3604 13.7965 31.2986 6.98026C31.2883 5.36076 31.69 4.10001 33.1011 3.23901C34.1105 3.24926 35.1096 3.24926 36.0984 3.24926ZM33.4616 42.845C36.1087 42.845 38.7558 42.8553 41.4132 42.8348C41.8561 42.8348 42.3505 43.0295 42.4741 42.2095C42.9582 38.8988 40.3729 34.686 37.0975 33.5688C31.4222 31.6418 24.9126 35.998 24.4388 41.984C24.3667 42.845 24.7478 42.845 25.3555 42.845C28.0541 42.845 30.763 42.845 33.4616 42.845Z" fill="#E74C3C"/>
<path fill-rule="evenodd" clip-rule="evenodd" d="M142.127 54.0995C140.252 60.9772 135.236 64.9952 128.232 65.3027C126.079 65.395 123.926 65.354 121.825 64.7902C116.304 63.3142 112.699 59.7882 111.103 54.3762C109.671 49.528 109.723 44.5977 111.247 39.77C113.493 32.6155 119.683 28.454 127.264 28.8537C134.772 29.2535 140.303 33.9992 141.818 41.369C142.209 43.255 142.281 45.182 142.405 47.0987C142.487 48.3595 142.034 48.667 140.808 48.6567C133.186 48.6055 125.574 48.6875 117.952 48.585C116.263 48.5645 116.171 49.2 116.397 50.4915C116.953 53.6587 118.076 56.5185 120.744 58.548C125.832 62.4225 132.784 60.598 135.462 54.6017C135.936 53.5357 136.441 53.2077 137.533 53.4127C139.067 53.6997 140.592 53.874 142.127 54.0995ZM126.429 43.7675C129.293 43.7675 132.166 43.7777 135.03 43.7572C135.524 43.7572 136.204 43.9725 136.06 42.9987C135.741 40.8052 135.226 38.6937 133.742 36.941C131.209 33.9582 127.099 32.9025 123.216 34.2247C119.642 35.4445 116.881 39.1037 116.644 42.763C116.583 43.7982 117.098 43.7777 117.819 43.7777C120.692 43.7572 123.556 43.7675 126.429 43.7675Z" fill="#E74C3C"/>
<path fill-rule="evenodd" clip-rule="evenodd" d="M260.453 48.626C256.642 48.626 252.831 48.6875 249.02 48.5953C247.629 48.5543 247.496 49.0668 247.681 50.2148C248.392 54.653 250.194 58.3328 254.736 59.942C259.804 61.7358 264.573 59.655 266.736 54.6838C267.282 53.4333 267.92 53.1668 269.084 53.4435C269.62 53.5665 270.176 53.6383 270.722 53.6998C273.74 54.0483 273.75 54.0483 272.525 56.7645C270.207 61.8793 266.139 64.616 260.618 65.2208C258.094 65.4975 255.55 65.4258 253.058 64.7595C246.713 63.0785 242.552 58.1278 241.697 51.0758C241.213 47.0578 241.367 43.0603 242.716 39.196C245.096 32.4105 251.317 28.4028 258.671 28.8538C266.087 29.3048 271.505 33.907 273.081 41.1435C273.513 43.132 273.647 45.1615 273.73 47.191C273.781 48.3903 273.328 48.6568 272.205 48.6465C268.291 48.585 264.377 48.626 260.453 48.626ZM257.6 43.7675C260.525 43.7675 263.45 43.7675 266.375 43.7675C266.911 43.7675 267.539 43.9008 267.385 42.968C267.014 40.7335 266.509 38.5605 264.923 36.7975C262.317 33.907 258.3 32.923 254.489 34.2453C250.925 35.4855 248.227 39.073 247.949 42.8245C247.877 43.747 248.299 43.788 248.999 43.7778C251.863 43.7573 254.736 43.7675 257.6 43.7675Z" fill="#E74C3C"/>
<path fill-rule="evenodd" clip-rule="evenodd" d="M223.96 48.626C220.098 48.626 216.225 48.667 212.362 48.6055C211.229 48.585 211.003 48.9438 211.085 50.02C211.631 56.8465 216.688 61.2028 223.177 60.352C226.72 59.8908 228.925 57.6973 230.212 54.571C230.676 53.4538 231.242 53.1873 232.303 53.423C232.89 53.5563 233.498 53.6178 234.106 53.71C237.288 54.1918 237.35 53.5358 235.846 56.9285C233.591 61.992 229.46 64.6365 224.012 65.231C221.54 65.4975 219.037 65.4565 216.606 64.8107C210.735 63.2528 207.109 59.4193 205.616 53.6485C204.462 49.2103 204.545 44.7208 205.801 40.2928C207.923 32.8205 214.268 28.3925 222.106 28.8538C229.759 29.3048 235.362 34.3785 236.66 41.9738C236.938 43.6035 236.969 45.2538 237.082 46.8938C237.175 48.2263 236.825 48.6978 235.383 48.6568C231.582 48.5543 227.771 48.626 223.96 48.626ZM220.932 43.7675C223.806 43.7675 226.669 43.7163 229.543 43.788C230.624 43.8188 230.83 43.4703 230.727 42.4658C230.192 37.3203 226.35 33.702 221.303 33.6713C216.297 33.6303 212.105 37.3715 211.456 42.3428C211.291 43.5625 211.703 43.8188 212.836 43.788C215.524 43.7163 218.233 43.7675 220.932 43.7675Z" fill="#E74C3C"/>
<path fill-rule="evenodd" clip-rule="evenodd" d="M309.007 64.6057C306.7 64.6057 304.661 64.5442 302.621 64.6365C301.684 64.6775 301.395 64.1035 301.004 63.509C297.409 57.974 293.825 52.439 290.117 46.7297C288.84 47.9597 287.645 49.1487 286.409 50.307C285.925 50.758 286.028 51.3012 286.028 51.8342C286.018 55.6267 285.997 59.4192 286.038 63.2117C286.048 64.1957 285.935 64.7595 284.73 64.6262C283.216 64.452 281.177 65.272 280.301 64.288C279.549 63.4475 280.054 61.4692 280.054 59.9932C280.044 45.9712 280.064 31.9595 280.023 17.9375C280.023 16.6767 280.301 16.154 281.63 16.3077C282.608 16.4205 283.628 16.4102 284.606 16.3077C285.832 16.1745 286.028 16.6972 286.028 17.794C285.987 26.3015 286.007 34.8192 286.007 43.4395C286.687 43.2755 286.965 42.7835 287.315 42.4247C291.229 38.4682 295.133 34.5015 299.016 30.5142C299.634 29.8787 300.242 29.5405 301.159 29.5712C303.136 29.643 305.124 29.5917 307.133 29.5917C307.236 30.3502 306.607 30.5552 306.257 30.9037C302.765 34.3477 299.305 37.8225 295.7 41.1537C294.474 42.2915 294.525 43.0192 295.432 44.3415C299.665 50.512 303.775 56.7645 307.926 62.976C308.266 63.4372 308.554 63.8985 309.007 64.6057Z" fill="#E74C3C"/>
<path fill-rule="evenodd" clip-rule="evenodd" d="M80.924 34.276C85.7444 29.0382 91.1313 27.5622 97.0229 29.643C101.184 31.119 103.409 34.1222 103.708 38.376C104.295 46.7707 103.842 55.186 103.975 63.591C103.986 64.4007 103.697 64.657 102.915 64.6057C101.328 64.493 99.3301 65.231 98.2692 64.3187C97.3422 63.5295 98.022 61.5307 98.0014 60.065C97.9087 53.751 98.2383 47.4165 97.8366 41.1127C97.4761 35.3625 93.2222 32.6565 87.6602 34.4297C83.602 35.7315 81.6244 38.7142 81.5523 44.0955C81.4596 50.307 81.4802 56.5185 81.5523 62.73C81.5729 64.1547 81.3051 64.862 79.7189 64.616C78.3799 64.411 76.5671 65.2105 75.774 64.2982C75.1148 63.5295 75.5577 61.787 75.5577 60.475C75.5474 50.6862 75.5783 40.9077 75.5268 31.1292C75.5165 29.9505 75.7328 29.5405 77.0306 29.561C80.8313 29.6327 80.8313 29.5712 80.8828 33.3842C80.8725 33.5995 80.8931 33.8045 80.924 34.276Z" fill="#E74C3C"/>
<path fill-rule="evenodd" clip-rule="evenodd" d="M154.126 34.5938C154.641 33.784 154.899 33.3638 155.177 32.9538C158.009 28.618 162.006 27.6443 166.599 30.1248C167.382 30.545 167.619 30.9448 167.238 31.7853C166.733 32.882 166.311 34.0198 165.95 35.1678C165.683 36.0288 165.322 36.039 164.519 35.7315C159.76 33.9275 156.577 35.6188 155.311 40.5285C154.785 42.5683 154.662 44.649 154.662 46.74C154.651 52.1828 154.631 57.6255 154.682 63.058C154.693 64.2163 154.497 64.8005 153.168 64.6263C151.716 64.4315 149.759 65.2515 148.914 64.2778C148.193 63.4475 148.667 61.5615 148.667 60.1368C148.657 50.471 148.688 40.795 148.636 31.119C148.626 29.9095 148.904 29.5405 150.181 29.561C153.972 29.6225 153.972 29.561 154.054 33.3945C154.044 33.6508 154.075 33.907 154.126 34.5938Z" fill="#E74C3C"/>
</g>
<defs>
<clipPath id="clip0_2_141">
<rect width="309" height="82" fill="white" transform="translate(0.779663)"/>
</clipPath>
</defs>
</svg>
