<svg width="310" height="83" viewBox="0 0 310 83" fill="none" xmlns="http://www.w3.org/2000/svg">
<g clip-path="url(#clip0_2_57)">
<path fill-rule="evenodd" clip-rule="evenodd" d="M1.96411 41.0558C2.63361 39.9537 2.57181 38.6559 2.89111 37.4611C5.63091 27.3053 11.9139 20.2189 21.4929 16.0062C23.625 15.0689 25.4481 15.6972 26.2309 17.51C26.9931 19.2816 26.1176 20.9605 23.934 21.8978C13.2426 26.4916 7.14501 37.0594 8.62821 48.4203C10.0496 59.2868 18.8046 68.0418 30.0316 69.8134C42.4431 71.7704 54.6795 63.9939 58.2124 51.912C61.7144 39.9125 55.658 27.1611 44.0499 22.0729C43.4937 21.836 42.9066 21.63 42.4225 21.2901C41.1762 20.4249 40.7745 18.6327 41.4646 17.2937C42.2268 15.8105 43.8748 15.1616 45.5537 15.8002C51.3217 18.025 56.0185 21.6712 59.6544 26.6564C73.2401 45.2479 62.4148 71.9661 39.7342 75.8801C21.8328 78.9598 5.92961 68.0109 2.36581 50.1713C2.28341 49.7799 2.49971 49.2546 1.96411 49.0074C1.96411 46.3603 1.96411 43.7029 1.96411 41.0558Z" fill="white"/>
<path fill-rule="evenodd" clip-rule="evenodd" d="M177.981 78.8465C176.94 78.3933 175.88 77.9813 174.86 77.4972C171.286 75.808 169.452 72.9549 169.164 69.0306C169.082 67.9697 169.463 67.774 170.369 67.9491C171.069 68.083 171.79 68.186 172.501 68.2581C173.943 68.4126 175.117 68.5774 175.488 70.4932C175.849 72.3575 177.631 73.2124 179.382 73.7171C181.884 74.4278 184.408 74.3866 186.901 73.6965C189.96 72.8416 191.783 70.7095 192.421 67.6813C192.895 65.4359 192.905 63.1184 192.813 60.4816C190.619 62.6961 188.353 64.3029 185.469 64.7046C179.773 65.4977 174.963 63.9836 171.543 59.1117C166.908 52.4991 166.805 41.8489 171.286 35.1333C176.116 27.8821 186.262 26.8212 192.411 32.9291C192.607 33.1145 192.73 33.372 192.978 33.7325C193.585 32.8261 193.4 32.0227 193.328 31.3326C193.184 29.9627 193.75 29.6949 194.996 29.7155C198.849 29.7773 198.849 29.7258 198.849 33.5471C198.849 42.7759 198.849 51.9944 198.838 61.2232C198.838 63.5407 198.622 65.8479 198.251 68.1448C197.417 73.3154 194.306 76.4672 189.517 78.2079C188.981 78.4036 188.569 78.692 187.91 78.8465C184.614 78.8465 181.297 78.8465 177.981 78.8465ZM193.276 47.0298C193.297 45.423 193.204 43.8368 192.864 42.2609C191.824 37.3993 188.27 34.1033 183.862 33.9591C179.691 33.8149 176.127 36.5547 174.85 41.0661C173.665 45.2582 173.768 49.4915 175.086 53.6321C176.343 57.5667 179.701 59.946 183.656 59.9666C187.622 59.9769 190.866 57.6285 192.298 53.7145C193.091 51.5412 193.317 49.3061 193.276 47.0298Z" fill="white"/>
<path fill-rule="evenodd" clip-rule="evenodd" d="M36.0983 3.26512C37.427 4.27452 37.8081 5.58262 37.7875 7.25122C37.7051 14.1007 37.7566 20.9502 37.7463 27.7997C37.7463 28.5207 37.6639 29.1387 38.6527 29.4271C44.1323 31.0133 46.6558 35.0921 47.6858 40.3863C48.0669 42.3536 47.9845 44.3415 48.0669 46.3294C48.1184 47.4624 47.7064 47.689 46.6661 47.6787C39.7033 47.6375 32.7508 47.6993 25.788 47.6169C24.2842 47.5963 24.0988 48.0701 24.3048 49.4091C25.5614 57.5873 31.9371 61.2335 40.2801 58.4937C42.165 57.8757 43.8439 56.8457 45.6979 55.6303C45.6979 57.2268 45.667 58.5864 45.7082 59.9357C45.7391 60.6464 45.255 60.9039 44.7812 61.1511C39.0647 64.1793 33.1216 64.7252 27.0652 62.3871C23.831 61.1408 21.5753 58.6482 20.2878 55.4655C18.0115 49.8211 17.7952 44.0531 20.1127 38.3675C21.9873 33.784 25.3245 30.6013 30.1964 29.3138C31.3191 29.0151 31.35 28.4383 31.3397 27.5628C31.3191 20.7133 31.3603 13.8638 31.2985 7.01432C31.2882 5.38692 31.6899 4.12002 33.101 3.25482C34.1104 3.26512 35.1095 3.26512 36.0983 3.26512ZM33.4615 43.054C36.1086 43.054 38.7557 43.0643 41.4131 43.0437C41.856 43.0437 42.3504 43.2394 42.474 42.4154C42.9581 39.0885 40.3728 34.8552 37.0974 33.7325C31.4221 31.7961 24.9125 36.1736 24.4387 42.1888C24.3666 43.054 24.7477 43.054 25.3554 43.054C28.054 43.054 30.7629 43.054 33.4615 43.054Z" fill="white"/>
<path fill-rule="evenodd" clip-rule="evenodd" d="M142.127 54.3635C140.252 61.2748 135.236 65.3124 128.232 65.6214C126.079 65.7141 123.926 65.6729 121.825 65.1064C116.304 63.6232 112.699 60.08 111.103 54.6416C109.671 49.7697 109.723 44.8154 111.247 39.9641C113.493 32.7747 119.683 28.5929 127.264 28.9946C134.772 29.3963 140.303 34.1652 141.818 41.5709C142.209 43.4661 142.281 45.4025 142.405 47.3286C142.487 48.5955 142.034 48.9045 140.808 48.8942C133.186 48.8427 125.574 48.9251 117.952 48.8221C116.263 48.8015 116.171 49.4401 116.397 50.7379C116.953 53.9206 118.076 56.7943 120.744 58.8337C125.832 62.7271 132.784 60.8937 135.462 54.8682C135.936 53.797 136.441 53.4674 137.533 53.6734C139.067 53.9618 140.592 54.1369 142.127 54.3635ZM126.429 43.9811C129.293 43.9811 132.166 43.9914 135.03 43.9708C135.524 43.9708 136.204 44.1871 136.06 43.2086C135.741 41.0044 135.226 38.8826 133.742 37.1213C131.209 34.124 127.099 33.0631 123.216 34.3918C119.642 35.6175 116.881 39.2946 116.644 42.9717C116.583 44.012 117.098 43.9914 117.819 43.9914C120.692 43.9708 123.556 43.9811 126.429 43.9811Z" fill="white"/>
<path fill-rule="evenodd" clip-rule="evenodd" d="M260.453 48.8632C256.642 48.8632 252.831 48.925 249.02 48.8323C247.629 48.7911 247.495 49.3061 247.681 50.4597C248.392 54.9196 250.194 58.6173 254.736 60.2344C259.804 62.0369 264.573 59.946 266.736 54.9505C267.282 53.6939 267.92 53.4261 269.084 53.7042C269.62 53.8278 270.176 53.8999 270.722 53.9617C273.74 54.3119 273.75 54.3119 272.524 57.0414C270.207 62.1811 266.138 64.9312 260.618 65.5389C258.094 65.817 255.55 65.7449 253.057 65.0754C246.713 63.3862 242.551 58.4113 241.697 51.3249C241.212 47.2873 241.367 43.2703 242.716 39.3872C245.096 32.5686 251.317 28.5413 258.671 28.9945C266.087 29.4477 271.505 34.0724 273.081 41.3442C273.513 43.3424 273.647 45.3818 273.73 47.4212C273.781 48.6263 273.328 48.8941 272.205 48.8838C268.291 48.822 264.377 48.8632 260.453 48.8632ZM257.6 43.981C260.525 43.981 263.45 43.981 266.375 43.981C266.911 43.981 267.539 44.1149 267.385 43.1776C267.014 40.9322 266.509 38.7486 264.923 36.977C262.317 34.0724 258.3 33.0836 254.489 34.4123C250.925 35.6586 248.227 39.2636 247.949 43.0334C247.877 43.9604 248.299 44.0016 248.999 43.9913C251.863 43.9707 254.736 43.981 257.6 43.981Z" fill="white"/>
<path fill-rule="evenodd" clip-rule="evenodd" d="M223.96 48.8632C220.097 48.8632 216.225 48.9044 212.362 48.8426C211.229 48.822 211.003 49.1825 211.085 50.264C211.631 57.1238 216.688 61.5013 223.177 60.6464C226.72 60.1829 228.925 57.9787 230.212 54.8372C230.676 53.7145 231.242 53.4467 232.303 53.6836C232.89 53.8175 233.498 53.8793 234.105 53.972C237.288 54.4561 237.35 53.7969 235.846 57.2062C233.59 62.2944 229.46 64.9518 224.011 65.5492C221.539 65.817 219.037 65.7758 216.606 65.1269C210.735 63.5613 207.109 59.7091 205.616 53.9102C204.462 49.4503 204.544 44.9389 205.801 40.4893C207.923 32.9806 214.268 28.531 222.106 28.9945C229.759 29.4477 235.362 34.5462 236.66 42.1785C236.938 43.8162 236.969 45.4745 237.082 47.1225C237.175 48.4615 236.825 48.9353 235.383 48.8941C231.582 48.7911 227.771 48.8632 223.96 48.8632ZM220.932 43.981C223.805 43.981 226.669 43.9295 229.543 44.0016C230.624 44.0325 230.83 43.6823 230.727 42.6729C230.191 37.5023 226.35 33.8664 221.303 33.8355C216.297 33.7943 212.105 37.5538 211.456 42.5493C211.291 43.775 211.703 44.0325 212.836 44.0016C215.524 43.9295 218.233 43.981 220.932 43.981Z" fill="white"/>
<path fill-rule="evenodd" clip-rule="evenodd" d="M309.007 64.9209C306.7 64.9209 304.66 64.8591 302.621 64.9518C301.684 64.993 301.395 64.4162 301.004 63.8188C297.409 58.2568 293.825 52.6948 290.117 46.9577C288.84 48.1937 287.645 49.3885 286.409 50.5524C285.925 51.0056 286.028 51.5515 286.028 52.0871C286.018 55.8981 285.997 59.7091 286.038 63.5201C286.048 64.5089 285.935 65.0754 284.73 64.9415C283.216 64.7664 281.177 65.5904 280.301 64.6016C279.549 63.757 280.054 61.7691 280.054 60.2859C280.044 46.1955 280.064 32.1154 280.023 18.025C280.023 16.7581 280.301 16.2328 281.63 16.3873C282.608 16.5006 283.628 16.4903 284.606 16.3873C285.832 16.2534 286.028 16.7787 286.028 17.8808C285.987 26.4298 286.007 34.9891 286.007 43.6514C286.687 43.4866 286.965 42.9922 287.315 42.6317C291.229 38.6559 295.133 34.6698 299.016 30.6631C299.634 30.0245 300.242 29.6846 301.159 29.7155C303.136 29.7876 305.124 29.7361 307.132 29.7361C307.235 30.4983 306.607 30.7043 306.257 31.0545C302.765 34.5153 299.304 38.007 295.699 41.3545C294.474 42.4978 294.525 43.2291 295.432 44.5578C299.665 50.7584 303.775 57.0414 307.926 63.2832C308.266 63.7467 308.554 64.2102 309.007 64.9209Z" fill="white"/>
<path fill-rule="evenodd" clip-rule="evenodd" d="M80.9239 34.4432C85.7443 29.1799 91.1312 27.6967 97.0228 29.7876C101.184 31.2708 103.409 34.2887 103.707 38.5632C104.295 46.9989 103.841 55.4552 103.975 63.9012C103.986 64.7149 103.697 64.9724 102.914 64.9209C101.328 64.8076 99.33 65.5492 98.2691 64.6325C97.3421 63.8394 98.0219 61.8309 98.0013 60.358C97.9086 54.0132 98.2382 47.6478 97.8365 41.3133C97.476 35.535 93.2221 32.8158 87.6601 34.5977C83.6019 35.9058 81.6243 38.9031 81.5522 44.3106C81.4595 50.5524 81.4801 56.7942 81.5522 63.036C81.5728 64.4677 81.305 65.1784 79.7188 64.9312C78.3798 64.7252 76.567 65.5286 75.7739 64.6119C75.1147 63.8394 75.5576 62.0884 75.5576 60.77C75.5473 50.9335 75.5782 41.1073 75.5267 31.2811C75.5164 30.0966 75.7327 29.6846 77.0305 29.7052C80.8312 29.7773 80.8312 29.7155 80.8827 33.5471C80.8724 33.7634 80.893 33.9694 80.9239 34.4432Z" fill="white"/>
<path fill-rule="evenodd" clip-rule="evenodd" d="M154.126 34.7625C154.641 33.9488 154.899 33.5265 155.177 33.1145C158.009 28.7576 162.006 27.7791 166.599 30.2717C167.382 30.694 167.619 31.0957 167.238 31.9403C166.733 33.0424 166.311 34.1857 165.95 35.3393C165.683 36.2045 165.322 36.2148 164.519 35.9058C159.76 34.093 156.577 35.7925 155.311 40.7262C154.785 42.7759 154.662 44.8668 154.662 46.968C154.651 52.4373 154.631 57.9066 154.682 63.3656C154.693 64.5295 154.497 65.1166 153.168 64.9415C151.716 64.7458 149.759 65.5698 148.914 64.5913C148.193 63.757 148.667 61.8618 148.667 60.4301C148.657 50.7172 148.688 40.994 148.636 31.2708C148.626 30.0554 148.904 29.6846 150.181 29.7052C153.972 29.767 153.972 29.7052 154.054 33.5574C154.044 33.8149 154.075 34.0724 154.126 34.7625Z" fill="white"/>
</g>
<defs>
<clipPath id="clip0_2_57">
<rect width="309" height="82.4" fill="white" transform="translate(0.779663)"/>
</clipPath>
</defs>
</svg>
