<svg width="398" height="332" viewBox="0 0 398 332" fill="none" xmlns="http://www.w3.org/2000/svg">
<path d="M278.443 328.044C285.601 328.044 291.403 322.242 291.403 315.084C291.403 307.926 285.601 302.124 278.443 302.124C271.285 302.124 265.483 307.926 265.483 315.084C265.483 322.242 271.285 328.044 278.443 328.044Z" fill="#B9D4DB"/>
<path d="M261.163 290.844C264.874 290.844 267.883 287.835 267.883 284.124C267.883 280.413 264.874 277.404 261.163 277.404C257.452 277.404 254.443 280.413 254.443 284.124C254.443 287.835 257.452 290.844 261.163 290.844Z" fill="#B9D4DB"/>
<path d="M305.121 300.444C310.423 300.444 314.721 296.146 314.721 290.844C314.721 285.542 310.423 281.244 305.121 281.244C299.819 281.244 295.521 285.542 295.521 290.844C295.521 296.146 299.819 300.444 305.121 300.444Z" fill="#B9D4DB"/>
<path d="M94.41 62.511C102.926 62.511 109.83 55.6073 109.83 47.091C109.83 38.5748 102.926 31.671 94.41 31.671C85.8938 31.671 78.99 38.5748 78.99 47.091C78.99 55.6073 85.8938 62.511 94.41 62.511Z" fill="#B9D4DB"/>
<path d="M64.9451 44.14C69.3811 44.14 72.9771 40.544 72.9771 36.108C72.9771 31.6721 69.3811 28.076 64.9451 28.076C60.5091 28.076 56.9131 31.6721 56.9131 36.108C56.9131 40.544 60.5091 44.14 64.9451 44.14Z" fill="#B9D4DB"/>
<path d="M72.322 13.438C74.8807 13.438 76.955 11.3637 76.955 8.805C76.955 6.24627 74.8807 4.172 72.322 4.172C69.7632 4.172 67.689 6.24627 67.689 8.805C67.689 11.3637 69.7632 13.438 72.322 13.438Z" fill="#B9D4DB"/>
<path d="M97.97 23.19C104.104 23.19 109.077 18.2172 109.077 12.083C109.077 5.94873 104.104 0.975952 97.97 0.975952C91.8358 0.975952 86.863 5.94873 86.863 12.083C86.863 18.2172 91.8358 23.19 97.97 23.19Z" fill="#B9D4DB"/>
<path d="M370.002 102.779C378.518 102.779 385.422 95.8752 385.422 87.359C385.422 78.8427 378.518 71.939 370.002 71.939C361.486 71.939 354.582 78.8427 354.582 87.359C354.582 95.8752 361.486 102.779 370.002 102.779Z" fill="#B9D4DB"/>
<path d="M338.605 97.1289C343.041 97.1289 346.637 93.5329 346.637 89.0969C346.637 84.661 343.041 81.0649 338.605 81.0649C334.169 81.0649 330.573 84.661 330.573 89.0969C330.573 93.5329 334.169 97.1289 338.605 97.1289Z" fill="#B9D4DB"/>
<path d="M339.264 42.351C343.103 42.351 346.216 39.2385 346.216 35.399C346.216 31.5595 343.103 28.447 339.264 28.447C335.425 28.447 332.312 31.5595 332.312 35.399C332.312 39.2385 335.425 42.351 339.264 42.351Z" fill="#B9D4DB"/>
<path d="M334.429 65.7579C336.988 65.7579 339.062 63.6837 339.062 61.1249C339.062 58.5662 336.988 56.4919 334.429 56.4919C331.87 56.4919 329.796 58.5662 329.796 61.1249C329.796 63.6837 331.87 65.7579 334.429 65.7579Z" fill="#B9D4DB"/>
<path d="M359.242 64.963C365.376 64.963 370.349 59.9903 370.349 53.856C370.349 47.7218 365.376 42.749 359.242 42.749C353.108 42.749 348.135 47.7218 348.135 53.856C348.135 59.9903 353.108 64.963 359.242 64.963Z" fill="#B9D4DB"/>
<path d="M260.151 123.88C280.511 123.88 297.016 107.375 297.016 87.015C297.016 66.6551 280.511 50.15 260.151 50.15C239.791 50.15 223.286 66.6551 223.286 87.015C223.286 107.375 239.791 123.88 260.151 123.88Z" fill="#D62828"/>
<path d="M282.007 74.544C285.201 74.544 287.79 71.9549 287.79 68.761C287.79 65.5672 285.201 62.978 282.007 62.978C278.813 62.978 276.224 65.5672 276.224 68.761C276.224 71.9549 278.813 74.544 282.007 74.544Z" fill="#F9AE2B"/>
<path d="M379.09 176.868C389.522 155.639 339.16 109.529 266.605 73.8777C194.051 38.2266 126.777 26.5351 116.346 47.764C105.915 68.9929 156.276 115.103 228.831 150.754C301.386 186.405 368.659 198.097 379.09 176.868Z" fill="#409CB5"/>
<path d="M258.955 89.4476C322.394 120.62 368.864 159.787 372.567 183.328C375.363 181.91 377.645 179.651 379.09 176.869C389.522 155.64 339.161 109.529 266.606 73.8776C194.051 38.2261 126.778 26.5344 116.347 47.7635C115.028 50.6077 114.633 53.794 115.218 56.8741C136.117 45.4213 195.516 58.2754 258.955 89.4476Z" fill="#3086A3"/>
<path d="M292.569 153.382C296.728 144.917 276.648 126.531 247.718 112.316C218.788 98.1012 191.964 93.4395 187.805 101.904C183.646 110.369 203.726 128.755 232.656 142.97C261.586 157.185 288.41 161.847 292.569 153.382Z" fill="#F9AE2B"/>
<path d="M244.668 118.524C269.963 130.954 288.492 146.571 289.968 155.958C291.083 155.392 291.993 154.491 292.569 153.382C296.729 144.917 276.648 126.531 247.718 112.316C218.788 98.1007 191.965 93.4389 187.805 101.904C187.279 103.038 187.122 104.308 187.355 105.536C195.688 100.97 219.373 106.095 244.668 118.524Z" fill="#EA9918"/>
<path d="M230.814 331.385H0.667969L187.355 105.536L291.044 156.486L230.814 331.385Z" fill="url(#paint0_linear_12_79)"/>
<defs>
<linearGradient id="paint0_linear_12_79" x1="271.269" y1="144.818" x2="83.9289" y2="366.678" gradientUnits="userSpaceOnUse">
<stop stop-color="#F9AE2B"/>
<stop offset="1" stop-color="white" stop-opacity="0"/>
</linearGradient>
</defs>
</svg>
