<svg width="227" height="278" viewBox="0 0 227 278" fill="none" xmlns="http://www.w3.org/2000/svg">
<path d="M155.774 67.17V-2.78003H225.684L155.774 67.17Z" fill="#42BD88"/>
<path d="M-54.1763 207.11H15.9337L-54.1763 277.26V207.11Z" fill="#FFB901"/>
<path d="M155.774 67.1799L85.8537 137.15H15.9337V207.11H-54.1763L-54.1563 67.1899L155.774 67.1799Z" fill="#3F57C9"/>
<path d="M-54.1663 -2.78003V67.18L85.8537 67.19V-2.78003H-54.1663Z" fill="#FFB901"/>
<path d="M85.8538 137.15L15.9338 207.11V137.15H85.8538Z" fill="#FF4D39"/>
<path d="M-54.1763 207.11L15.9337 137.15V207.11H-54.1763Z" fill="#FF4D39"/>
<path d="M15.9338 -2.78003H5.92383V137.15H15.9338V-2.78003Z" fill="white"/>
<path d="M155.964 -2.78003C155.964 35.85 124.574 67.18 85.8635 67.18V-2.78003H155.964Z" fill="#2D347A"/>
<path d="M85.8537 67.19L15.7437 -2.78003H85.8537V67.19Z" fill="#852BE0"/>
<path d="M120.904 -2.78003H85.8535V32.2H120.904V-2.78003Z" fill="white"/>
<path d="M155.874 32.1101V67.0901H120.824V32.1201L155.874 32.1101Z" fill="#FF4D39"/>
<path d="M68.2835 84.6799L85.7635 102.17L68.2835 119.66L85.7635 137.15H68.2835L50.8035 119.66L68.2835 102.17L50.8035 84.6799L68.2835 67.1899H85.7635L68.2835 84.6799Z" fill="#FFB901"/>
<path d="M50.8035 102.17L33.3235 119.66L50.8035 137.15H33.3235L15.8535 119.66L33.3235 102.17L15.8535 84.6799L33.3235 67.1899L50.8035 67.1799L33.3235 84.6799L50.8035 102.17Z" fill="#FFB901"/>
<path d="M50.1436 12.1501C39.4136 12.1501 30.7036 20.8301 30.7036 31.5401C30.7036 42.2501 39.4036 50.9301 50.1436 50.9401C60.8736 50.9401 69.5836 42.2601 69.5836 31.5401C69.5836 20.8301 60.8836 12.1501 50.1436 12.1501Z" fill="white"/>
</svg>
