<svg width="562" height="196" viewBox="0 0 562 196" fill="none" xmlns="http://www.w3.org/2000/svg">
<g opacity="0.06">
<path d="M211.28 70.71L281.37 70.7V0.939941L211.28 70.71Z" fill="#42BD88"/>
<path d="M211.27 70.71L141.16 140.49V210.25H71.05V210.26V280.22L211.27 280.2V70.71Z" fill="#3F57C9"/>
<path d="M281.38 140.48H211.27V280.21H281.38V140.48Z" fill="#FFB901"/>
<path d="M141.16 140.49L71.05 210.25H141.16V140.49Z" fill="#FF4D39"/>
<path d="M281.37 70.52C242.65 70.52 211.27 101.85 211.27 140.48H281.37V70.52Z" fill="#2D347A"/>
<path d="M211.27 140.48L281.37 210.44V140.48H211.27Z" fill="#852BE0"/>
<path d="M281.38 105.5H246.32V140.48H281.38V105.5Z" fill="white"/>
<path d="M246.41 70.6099H211.36V105.59H246.41V70.6099Z" fill="#FF4D39"/>
<path d="M193.73 158.02L176.21 140.57L158.68 158.02L141.16 140.57V158.02L158.68 175.47L176.21 158.02L193.73 175.47L211.26 158.02V140.57L193.73 158.02Z" fill="#FFB901"/>
<path d="M176.21 175.47L158.68 192.9L141.16 175.47V192.9L158.68 210.35L176.21 192.9L193.73 210.35L211.26 192.9V175.47L193.73 192.9L176.21 175.47Z" fill="#FFB901"/>
<path d="M266.41 176.12C266.41 186.83 257.71 195.52 246.98 195.52C236.25 195.52 227.55 186.84 227.55 176.12C227.55 165.4 236.25 156.73 246.98 156.73C257.71 156.73 266.41 165.41 266.41 176.12Z" fill="white"/>
<path d="M491.33 210.34L421.4 140.48H351.48V70.6201V70.6101H281.37L281.39 210.34H491.33Z" fill="#3F57C9"/>
<path d="M281.37 70.61H351.48L281.37 0.560059V70.61Z" fill="#FFB901"/>
<path d="M421.4 140.48L351.48 70.6201V140.48H421.4Z" fill="#FF4D39"/>
<path d="M281.37 70.6101L351.48 140.48V70.6201L281.37 70.6101Z" fill="#FF4D39"/>
<path d="M403.83 192.87L421.31 175.41L403.83 157.94L421.31 140.48H403.83L386.35 157.94L403.83 175.41L386.35 192.87L403.83 210.34H421.31L403.83 192.87Z" fill="#FFB901"/>
<path d="M386.35 175.41L368.87 157.94L386.35 140.48H368.87L351.39 157.94L368.87 175.41L351.39 192.87L368.87 210.34H386.35L368.87 192.87L386.35 175.41Z" fill="#FFB901"/>
<path d="M281.73 210.33H316.7C316.7 191.04 332.35 175.4 351.66 175.4V140.47C313.05 140.47 281.74 171.75 281.74 210.33H281.73Z" fill="#FFB901"/>
</g>
</svg>
