<svg width="100" height="497" viewBox="0 0 100 497" fill="none" xmlns="http://www.w3.org/2000/svg">
<g opacity="0.12">
<path d="M0.258789 66.98H66.3188V133.22L0.258789 66.98Z" fill="#F2F6FC"/>
<path d="M99.5189 95.27H33.3789V99.99H99.5189V95.27Z" fill="#3F57C9"/>
<path d="M99.5189 85.8401H33.3789V90.5501H99.5189V85.8401Z" fill="#3F57C9"/>
<path d="M99.5189 66.98H33.3789V71.7H99.5189V66.98Z" fill="#3F57C9"/>
<path d="M99.5189 76.4099H33.3789V81.1199H99.5189V76.4099Z" fill="#3F57C9"/>
<path d="M8.53879 124.77L16.8188 133.03L25.0988 124.77L33.3788 133.03V124.77L25.0988 116.51L16.8188 124.77L8.53879 116.51L0.258789 124.77V133.03L8.53879 124.77Z" fill="#3F57C9"/>
<path d="M16.8188 116.51L25.0988 108.26L33.3788 116.51V108.26L25.0988 100L16.8188 108.26L8.53879 100L0.258789 108.26V116.51L8.53879 108.26L16.8188 116.51Z" fill="#DCE4F0"/>
<path d="M25.0988 75.23L16.8188 66.97L8.53879 75.23L0.258789 66.97V75.23L8.53879 83.49L16.8188 75.23L25.0988 83.49L33.3788 75.23V66.97L25.0988 75.23Z" fill="#852BE0"/>
<path d="M16.8188 83.49L8.53879 91.74L0.258789 83.49V91.74L8.53879 100L16.8188 91.74L25.0988 100L33.3788 91.74V83.49L25.0988 91.74L16.8188 83.49Z" fill="#FF4D39"/>
<path d="M33.3788 133.01H0.258789V166.04H33.3788V133.01Z" fill="white"/>
<path d="M6.38889 161.21C5.67889 161.21 5.09888 160.63 5.09888 159.92C5.09888 159.21 5.67889 158.63 6.38889 158.63C7.09889 158.63 7.67889 159.21 7.67889 159.92C7.67889 160.63 7.09889 161.21 6.38889 161.21Z" fill="#FFB901"/>
<path d="M11.6089 161.21C10.8989 161.21 10.3188 160.63 10.3188 159.92C10.3188 159.21 10.8989 158.63 11.6089 158.63C12.3189 158.63 12.8989 159.21 12.8989 159.92C12.8989 160.63 12.3189 161.21 11.6089 161.21Z" fill="#FFB901"/>
<path d="M16.8188 161.21C16.1088 161.21 15.5288 160.63 15.5288 159.92C15.5288 159.21 16.1088 158.63 16.8188 158.63C17.5288 158.63 18.1088 159.21 18.1088 159.92C18.1088 160.63 17.5288 161.21 16.8188 161.21Z" fill="#FFB901"/>
<path d="M22.0287 161.21C21.3187 161.21 20.7388 160.63 20.7388 159.92C20.7388 159.21 21.3187 158.63 22.0287 158.63C22.7387 158.63 23.3188 159.21 23.3188 159.92C23.3188 160.63 22.7387 161.21 22.0287 161.21Z" fill="#FFB901"/>
<path d="M27.239 158.63C27.949 158.63 28.529 159.21 28.529 159.92C28.529 160.63 27.949 161.21 27.239 161.21C26.529 161.21 25.949 160.63 25.949 159.92C25.949 159.21 26.529 158.63 27.239 158.63Z" fill="#FFB901"/>
<path d="M6.38889 156.01C5.67889 156.01 5.09888 155.43 5.09888 154.72C5.09888 154.01 5.67889 153.43 6.38889 153.43C7.09889 153.43 7.67889 154 7.67889 154.72C7.67889 155.44 7.09889 156.01 6.38889 156.01Z" fill="#FFB901"/>
<path d="M11.6089 156.01C10.8989 156.01 10.3188 155.43 10.3188 154.72C10.3188 154.01 10.8989 153.43 11.6089 153.43C12.3189 153.43 12.8989 154 12.8989 154.72C12.8989 155.44 12.3189 156.01 11.6089 156.01Z" fill="#FFB901"/>
<path d="M16.8188 156.01C16.1088 156.01 15.5288 155.43 15.5288 154.72C15.5288 154.01 16.1088 153.43 16.8188 153.43C17.5288 153.43 18.1088 154 18.1088 154.72C18.1088 155.44 17.5288 156.01 16.8188 156.01Z" fill="#FFB901"/>
<path d="M22.0287 156.01C21.3187 156.01 20.7388 155.43 20.7388 154.72C20.7388 154.01 21.3187 153.43 22.0287 153.43C22.7387 153.43 23.3188 154 23.3188 154.72C23.3188 155.44 22.7387 156.01 22.0287 156.01Z" fill="#FFB901"/>
<path d="M27.239 156.01C26.529 156.01 25.949 155.43 25.949 154.72C25.949 154.01 26.529 153.43 27.239 153.43C27.949 153.43 28.529 154 28.529 154.72C28.529 155.44 27.949 156.01 27.239 156.01Z" fill="#FFB901"/>
<path d="M6.38889 150.81C5.67889 150.81 5.09888 150.23 5.09888 149.52C5.09888 148.81 5.67889 148.23 6.38889 148.23C7.09889 148.23 7.67889 148.81 7.67889 149.52C7.67889 150.23 7.09889 150.81 6.38889 150.81Z" fill="#FFB901"/>
<path d="M11.6089 150.81C10.8989 150.81 10.3188 150.23 10.3188 149.52C10.3188 148.81 10.8989 148.23 11.6089 148.23C12.3189 148.23 12.8989 148.81 12.8989 149.52C12.8989 150.23 12.3189 150.81 11.6089 150.81Z" fill="#FFB901"/>
<path d="M16.8188 150.81C16.1088 150.81 15.5288 150.23 15.5288 149.52C15.5288 148.81 16.1088 148.23 16.8188 148.23C17.5288 148.23 18.1088 148.81 18.1088 149.52C18.1088 150.23 17.5288 150.81 16.8188 150.81Z" fill="#FFB901"/>
<path d="M22.0287 150.81C21.3187 150.81 20.7388 150.23 20.7388 149.52C20.7388 148.81 21.3187 148.23 22.0287 148.23C22.7387 148.23 23.3188 148.81 23.3188 149.52C23.3188 150.23 22.7387 150.81 22.0287 150.81Z" fill="#FFB901"/>
<path d="M27.239 150.81C26.529 150.81 25.949 150.23 25.949 149.52C25.949 148.81 26.529 148.23 27.239 148.23C27.949 148.23 28.529 148.81 28.529 149.52C28.529 150.23 27.949 150.81 27.239 150.81Z" fill="#FFB901"/>
<path d="M6.38889 145.62C5.67889 145.62 5.09888 145.04 5.09888 144.33C5.09888 143.62 5.67889 143.04 6.38889 143.04C7.09889 143.04 7.67889 143.62 7.67889 144.33C7.67889 145.04 7.09889 145.62 6.38889 145.62Z" fill="#FFB901"/>
<path d="M11.6089 145.62C10.8989 145.62 10.3188 145.04 10.3188 144.33C10.3188 143.62 10.8989 143.04 11.6089 143.04C12.3189 143.04 12.8989 143.62 12.8989 144.33C12.8989 145.04 12.3189 145.62 11.6089 145.62Z" fill="#FFB901"/>
<path d="M16.8188 145.62C16.1088 145.62 15.5288 145.04 15.5288 144.33C15.5288 143.62 16.1088 143.04 16.8188 143.04C17.5288 143.04 18.1088 143.62 18.1088 144.33C18.1088 145.04 17.5288 145.62 16.8188 145.62Z" fill="#FFB901"/>
<path d="M22.0287 145.62C21.3187 145.62 20.7388 145.04 20.7388 144.33C20.7388 143.62 21.3187 143.04 22.0287 143.04C22.7387 143.04 23.3188 143.62 23.3188 144.33C23.3188 145.04 22.7387 145.62 22.0287 145.62Z" fill="#FFB901"/>
<path d="M27.239 145.62C26.529 145.62 25.949 145.04 25.949 144.33C25.949 143.62 26.529 143.04 27.239 143.04C27.949 143.04 28.529 143.62 28.529 144.33C28.529 145.04 27.949 145.62 27.239 145.62Z" fill="#FFB901"/>
<path d="M6.38889 140.42C5.67889 140.42 5.09888 139.84 5.09888 139.13C5.09888 138.42 5.67889 137.84 6.38889 137.84C7.09889 137.84 7.67889 138.42 7.67889 139.13C7.67889 139.84 7.09889 140.42 6.38889 140.42Z" fill="#FFB901"/>
<path d="M11.6089 140.42C10.8989 140.42 10.3188 139.84 10.3188 139.13C10.3188 138.42 10.8989 137.84 11.6089 137.84C12.3189 137.84 12.8989 138.42 12.8989 139.13C12.8989 139.84 12.3189 140.42 11.6089 140.42Z" fill="#FFB901"/>
<path d="M16.8188 140.42C16.1088 140.42 15.5288 139.84 15.5288 139.13C15.5288 138.42 16.1088 137.84 16.8188 137.84C17.5288 137.84 18.1088 138.42 18.1088 139.13C18.1088 139.84 17.5288 140.42 16.8188 140.42Z" fill="#FFB901"/>
<path d="M22.0287 140.42C21.3187 140.42 20.7388 139.84 20.7388 139.13C20.7388 138.42 21.3187 137.84 22.0287 137.84C22.7387 137.84 23.3188 138.42 23.3188 139.13C23.3188 139.84 22.7387 140.42 22.0287 140.42Z" fill="#FFB901"/>
<path d="M27.239 140.42C26.529 140.42 25.949 139.84 25.949 139.13C25.949 138.42 26.529 137.84 27.239 137.84C27.949 137.84 28.529 138.42 28.529 139.13C28.529 139.84 27.949 140.42 27.239 140.42Z" fill="#FFB901"/>
<path d="M99.5188 50.4099C90.3988 50.4099 83.0088 57.8199 83.0088 66.9699H66.4988C66.4988 48.6799 81.2888 33.8499 99.5288 33.8499V50.4099H99.5188Z" fill="#852BE0"/>
<path d="M33.2888 50.4099C42.4088 50.4099 49.7988 57.8199 49.7988 66.9699H66.3088C66.3088 48.6799 51.5188 33.8499 33.2788 33.8499V50.4099H33.2888Z" fill="#FF4D39"/>
<path d="M66.4087 0.919922C66.4087 19.1599 81.2287 33.9499 99.5187 33.9499V0.919922H66.4087Z" fill="#FFB901"/>
<path d="M66.3988 0.919922C66.3988 19.1599 51.5688 33.9499 33.2888 33.9499V0.919922H66.3988Z" fill="#2D347A"/>
<path d="M58.0288 33.9499C58.0288 29.3799 61.7388 25.6699 66.3088 25.6699C70.8788 25.6699 74.5888 29.3799 74.5888 33.9499C74.5888 38.5199 70.8788 42.2299 66.3088 42.2299C61.7388 42.2299 58.0288 38.5199 58.0288 33.9499Z" fill="#DCE4F0"/>
<path d="M99.5188 100.1V166.16H33.2788L99.5188 100.1Z" fill="#DCE4F0"/>
<path d="M33.3788 33.8999H0.258789V66.9299H33.3788V33.8999Z" fill="#2D347A"/>
<path d="M16.8189 43.1C12.9089 43.39 9.78889 46.5 9.48889 50.41H9.44888C9.14888 46.5 6.0289 43.39 2.1189 43.1V43.07C6.0289 42.78 9.14888 39.66 9.44888 35.76H9.48889C9.78889 39.67 12.9089 42.78 16.8189 43.07V43.1Z" fill="#42BD88"/>
<path d="M31.5089 43.1C27.5989 43.39 24.4789 46.5 24.1789 50.41H24.1389C23.8389 46.5 20.7188 43.39 16.8088 43.1V43.07C20.7188 42.78 23.8389 39.66 24.1389 35.76H24.1789C24.4789 39.67 27.5989 42.78 31.5089 43.07V43.1Z" fill="#42BD88"/>
<path d="M16.8189 57.7599C12.9089 58.0499 9.78889 61.1699 9.48889 65.0699H9.44888C9.14888 61.1599 6.0289 58.0399 2.1189 57.7599V57.7299C6.0289 57.4399 9.14888 54.3199 9.44888 50.4199H9.48889C9.78889 54.3299 12.9089 57.4499 16.8189 57.7299V57.7599Z" fill="#42BD88"/>
<path d="M31.5089 57.7599C27.5989 58.0499 24.4789 61.1699 24.1789 65.0699H24.1389C23.8389 61.1599 20.7188 58.0399 16.8088 57.7599V57.7299C20.7188 57.4399 23.8389 54.3199 24.1389 50.4199H24.1789C24.4789 54.3299 27.5989 57.4499 31.5089 57.7299V57.7599Z" fill="#42BD88"/>
<path d="M49.9389 100H33.3789V116.51H49.9389V100Z" fill="#FFB901"/>
<path d="M66.499 116.51H49.939V133.03H66.499V116.51Z" fill="#FFB901"/>
<path d="M66.4087 136.18L69.4587 133.13H66.4087V136.18Z" fill="white"/>
<path d="M82.8387 133.13H76.1487L66.4087 142.85V149.53L82.8387 133.13Z" fill="white"/>
<path d="M96.2287 133.13H89.5287L66.4087 156.2V162.87L96.2287 133.13Z" fill="white"/>
<path d="M99.5187 163.11L96.4587 166.16H99.5187V163.11Z" fill="white"/>
<path d="M99.5188 143.19V136.52L69.7988 166.16H76.4888L99.5188 143.19Z" fill="white"/>
<path d="M99.5186 156.47V149.8L83.1187 166.16H89.8086L99.5186 156.47Z" fill="white"/>
<path d="M66.4087 133.13V99.99H99.5187L66.4087 133.13Z" fill="#42BD88"/>
<path d="M0.258789 232.22H66.3188V298.46L0.258789 232.22Z" fill="#F2F6FC"/>
<path d="M99.5189 260.51H33.3789V265.23H99.5189V260.51Z" fill="#3F57C9"/>
<path d="M99.5189 251.08H33.3789V255.79H99.5189V251.08Z" fill="#3F57C9"/>
<path d="M99.5189 232.22H33.3789V236.94H99.5189V232.22Z" fill="#3F57C9"/>
<path d="M99.5189 241.65H33.3789V246.36H99.5189V241.65Z" fill="#3F57C9"/>
<path d="M8.53879 290.01L16.8188 298.27L25.0988 290.01L33.3788 298.27V290.01L25.0988 281.75L16.8188 290.01L8.53879 281.75L0.258789 290.01V298.27L8.53879 290.01Z" fill="#3F57C9"/>
<path d="M16.8188 281.75L25.0988 273.5L33.3788 281.75V273.5L25.0988 265.24L16.8188 273.5L8.53879 265.24L0.258789 273.5V281.75L8.53879 273.5L16.8188 281.75Z" fill="#DCE4F0"/>
<path d="M25.0988 240.47L16.8188 232.21L8.53879 240.47L0.258789 232.21V240.47L8.53879 248.73L16.8188 240.47L25.0988 248.73L33.3788 240.47V232.21L25.0988 240.47Z" fill="#852BE0"/>
<path d="M16.8188 248.73L8.53879 256.98L0.258789 248.73V256.98L8.53879 265.24L16.8188 256.98L25.0988 265.24L33.3788 256.98V248.73L25.0988 256.98L16.8188 248.73Z" fill="#FF4D39"/>
<path d="M33.3788 298.25H0.258789V331.28H33.3788V298.25Z" fill="white"/>
<path d="M6.38889 326.45C5.67889 326.45 5.09888 325.87 5.09888 325.16C5.09888 324.45 5.67889 323.87 6.38889 323.87C7.09889 323.87 7.67889 324.45 7.67889 325.16C7.67889 325.87 7.09889 326.45 6.38889 326.45Z" fill="#FFB901"/>
<path d="M11.6089 326.45C10.8989 326.45 10.3188 325.87 10.3188 325.16C10.3188 324.45 10.8989 323.87 11.6089 323.87C12.3189 323.87 12.8989 324.45 12.8989 325.16C12.8989 325.87 12.3189 326.45 11.6089 326.45Z" fill="#FFB901"/>
<path d="M16.8188 326.45C16.1088 326.45 15.5288 325.87 15.5288 325.16C15.5288 324.45 16.1088 323.87 16.8188 323.87C17.5288 323.87 18.1088 324.45 18.1088 325.16C18.1088 325.87 17.5288 326.45 16.8188 326.45Z" fill="#FFB901"/>
<path d="M22.0287 326.45C21.3187 326.45 20.7388 325.87 20.7388 325.16C20.7388 324.45 21.3187 323.87 22.0287 323.87C22.7387 323.87 23.3188 324.45 23.3188 325.16C23.3188 325.87 22.7387 326.45 22.0287 326.45Z" fill="#FFB901"/>
<path d="M27.239 323.87C27.949 323.87 28.529 324.45 28.529 325.16C28.529 325.87 27.949 326.45 27.239 326.45C26.529 326.45 25.949 325.87 25.949 325.16C25.949 324.45 26.529 323.87 27.239 323.87Z" fill="#FFB901"/>
<path d="M6.38889 321.25C5.67889 321.25 5.09888 320.67 5.09888 319.96C5.09888 319.25 5.67889 318.67 6.38889 318.67C7.09889 318.67 7.67889 319.24 7.67889 319.96C7.67889 320.68 7.09889 321.25 6.38889 321.25Z" fill="#FFB901"/>
<path d="M11.6089 321.25C10.8989 321.25 10.3188 320.67 10.3188 319.96C10.3188 319.25 10.8989 318.67 11.6089 318.67C12.3189 318.67 12.8989 319.24 12.8989 319.96C12.8989 320.68 12.3189 321.25 11.6089 321.25Z" fill="#FFB901"/>
<path d="M16.8188 321.25C16.1088 321.25 15.5288 320.67 15.5288 319.96C15.5288 319.25 16.1088 318.67 16.8188 318.67C17.5288 318.67 18.1088 319.24 18.1088 319.96C18.1088 320.68 17.5288 321.25 16.8188 321.25Z" fill="#FFB901"/>
<path d="M22.0287 321.25C21.3187 321.25 20.7388 320.67 20.7388 319.96C20.7388 319.25 21.3187 318.67 22.0287 318.67C22.7387 318.67 23.3188 319.24 23.3188 319.96C23.3188 320.68 22.7387 321.25 22.0287 321.25Z" fill="#FFB901"/>
<path d="M27.239 321.25C26.529 321.25 25.949 320.67 25.949 319.96C25.949 319.25 26.529 318.67 27.239 318.67C27.949 318.67 28.529 319.24 28.529 319.96C28.529 320.68 27.949 321.25 27.239 321.25Z" fill="#FFB901"/>
<path d="M6.38889 316.05C5.67889 316.05 5.09888 315.47 5.09888 314.76C5.09888 314.05 5.67889 313.47 6.38889 313.47C7.09889 313.47 7.67889 314.05 7.67889 314.76C7.67889 315.47 7.09889 316.05 6.38889 316.05Z" fill="#FFB901"/>
<path d="M11.6089 316.05C10.8989 316.05 10.3188 315.47 10.3188 314.76C10.3188 314.05 10.8989 313.47 11.6089 313.47C12.3189 313.47 12.8989 314.05 12.8989 314.76C12.8989 315.47 12.3189 316.05 11.6089 316.05Z" fill="#FFB901"/>
<path d="M16.8188 316.05C16.1088 316.05 15.5288 315.47 15.5288 314.76C15.5288 314.05 16.1088 313.47 16.8188 313.47C17.5288 313.47 18.1088 314.05 18.1088 314.76C18.1088 315.47 17.5288 316.05 16.8188 316.05Z" fill="#FFB901"/>
<path d="M22.0287 316.05C21.3187 316.05 20.7388 315.47 20.7388 314.76C20.7388 314.05 21.3187 313.47 22.0287 313.47C22.7387 313.47 23.3188 314.05 23.3188 314.76C23.3188 315.47 22.7387 316.05 22.0287 316.05Z" fill="#FFB901"/>
<path d="M27.239 316.05C26.529 316.05 25.949 315.47 25.949 314.76C25.949 314.05 26.529 313.47 27.239 313.47C27.949 313.47 28.529 314.05 28.529 314.76C28.529 315.47 27.949 316.05 27.239 316.05Z" fill="#FFB901"/>
<path d="M6.38889 310.86C5.67889 310.86 5.09888 310.28 5.09888 309.57C5.09888 308.86 5.67889 308.28 6.38889 308.28C7.09889 308.28 7.67889 308.86 7.67889 309.57C7.67889 310.28 7.09889 310.86 6.38889 310.86Z" fill="#FFB901"/>
<path d="M11.6089 310.86C10.8989 310.86 10.3188 310.28 10.3188 309.57C10.3188 308.86 10.8989 308.28 11.6089 308.28C12.3189 308.28 12.8989 308.86 12.8989 309.57C12.8989 310.28 12.3189 310.86 11.6089 310.86Z" fill="#FFB901"/>
<path d="M16.8188 310.86C16.1088 310.86 15.5288 310.28 15.5288 309.57C15.5288 308.86 16.1088 308.28 16.8188 308.28C17.5288 308.28 18.1088 308.86 18.1088 309.57C18.1088 310.28 17.5288 310.86 16.8188 310.86Z" fill="#FFB901"/>
<path d="M22.0287 310.86C21.3187 310.86 20.7388 310.28 20.7388 309.57C20.7388 308.86 21.3187 308.28 22.0287 308.28C22.7387 308.28 23.3188 308.86 23.3188 309.57C23.3188 310.28 22.7387 310.86 22.0287 310.86Z" fill="#FFB901"/>
<path d="M27.239 310.86C26.529 310.86 25.949 310.28 25.949 309.57C25.949 308.86 26.529 308.28 27.239 308.28C27.949 308.28 28.529 308.86 28.529 309.57C28.529 310.28 27.949 310.86 27.239 310.86Z" fill="#FFB901"/>
<path d="M6.38889 305.66C5.67889 305.66 5.09888 305.08 5.09888 304.37C5.09888 303.66 5.67889 303.08 6.38889 303.08C7.09889 303.08 7.67889 303.66 7.67889 304.37C7.67889 305.08 7.09889 305.66 6.38889 305.66Z" fill="#FFB901"/>
<path d="M11.6089 305.66C10.8989 305.66 10.3188 305.08 10.3188 304.37C10.3188 303.66 10.8989 303.08 11.6089 303.08C12.3189 303.08 12.8989 303.66 12.8989 304.37C12.8989 305.08 12.3189 305.66 11.6089 305.66Z" fill="#FFB901"/>
<path d="M16.8188 305.66C16.1088 305.66 15.5288 305.08 15.5288 304.37C15.5288 303.66 16.1088 303.08 16.8188 303.08C17.5288 303.08 18.1088 303.66 18.1088 304.37C18.1088 305.08 17.5288 305.66 16.8188 305.66Z" fill="#FFB901"/>
<path d="M22.0287 305.66C21.3187 305.66 20.7388 305.08 20.7388 304.37C20.7388 303.66 21.3187 303.08 22.0287 303.08C22.7387 303.08 23.3188 303.66 23.3188 304.37C23.3188 305.08 22.7387 305.66 22.0287 305.66Z" fill="#FFB901"/>
<path d="M27.239 305.66C26.529 305.66 25.949 305.08 25.949 304.37C25.949 303.66 26.529 303.08 27.239 303.08C27.949 303.08 28.529 303.66 28.529 304.37C28.529 305.08 27.949 305.66 27.239 305.66Z" fill="#FFB901"/>
<path d="M99.5188 215.65C90.3988 215.65 83.0088 223.06 83.0088 232.21H66.4988C66.4988 213.92 81.2888 199.09 99.5288 199.09V215.65H99.5188Z" fill="#852BE0"/>
<path d="M33.2888 215.65C42.4088 215.65 49.7988 223.06 49.7988 232.21H66.3088C66.3088 213.92 51.5188 199.09 33.2788 199.09V215.65H33.2888Z" fill="#FF4D39"/>
<path d="M66.4087 166.16C66.4087 184.4 81.2287 199.19 99.5187 199.19V166.16H66.4087Z" fill="#FFB901"/>
<path d="M66.3988 166.16C66.3988 184.4 51.5688 199.19 33.2888 199.19V166.16H66.3988Z" fill="#2D347A"/>
<path d="M58.0288 199.19C58.0288 194.62 61.7388 190.91 66.3088 190.91C70.8788 190.91 74.5888 194.62 74.5888 199.19C74.5888 203.76 70.8788 207.47 66.3088 207.47C61.7388 207.47 58.0288 203.76 58.0288 199.19Z" fill="#DCE4F0"/>
<path d="M99.5188 265.34V331.4H33.2788L99.5188 265.34Z" fill="#DCE4F0"/>
<path d="M33.3788 199.14H0.258789V232.17H33.3788V199.14Z" fill="#2D347A"/>
<path d="M16.8189 208.34C12.9089 208.63 9.78889 211.74 9.48889 215.65H9.44888C9.14888 211.74 6.0289 208.63 2.1189 208.34V208.31C6.0289 208.02 9.14888 204.9 9.44888 201H9.48889C9.78889 204.91 12.9089 208.02 16.8189 208.31V208.34Z" fill="#42BD88"/>
<path d="M31.5089 208.34C27.5989 208.63 24.4789 211.74 24.1789 215.65H24.1389C23.8389 211.74 20.7188 208.63 16.8088 208.34V208.31C20.7188 208.02 23.8389 204.9 24.1389 201H24.1789C24.4789 204.91 27.5989 208.02 31.5089 208.31V208.34Z" fill="#42BD88"/>
<path d="M16.8189 223C12.9089 223.29 9.78889 226.41 9.48889 230.31H9.44888C9.14888 226.4 6.0289 223.28 2.1189 223V222.97C6.0289 222.68 9.14888 219.56 9.44888 215.66H9.48889C9.78889 219.57 12.9089 222.69 16.8189 222.97V223Z" fill="#42BD88"/>
<path d="M31.5089 223C27.5989 223.29 24.4789 226.41 24.1789 230.31H24.1389C23.8389 226.4 20.7188 223.28 16.8088 223V222.97C20.7188 222.68 23.8389 219.56 24.1389 215.66H24.1789C24.4789 219.57 27.5989 222.69 31.5089 222.97V223Z" fill="#42BD88"/>
<path d="M49.9389 265.24H33.3789V281.75H49.9389V265.24Z" fill="#FFB901"/>
<path d="M66.499 281.75H49.939V298.27H66.499V281.75Z" fill="#FFB901"/>
<path d="M66.4087 301.42L69.4587 298.37H66.4087V301.42Z" fill="white"/>
<path d="M82.8387 298.37H76.1487L66.4087 308.09V314.77L82.8387 298.37Z" fill="white"/>
<path d="M96.2287 298.37H89.5287L66.4087 321.44V328.11L96.2287 298.37Z" fill="white"/>
<path d="M99.5187 328.35L96.4587 331.4H99.5187V328.35Z" fill="white"/>
<path d="M99.5188 308.43V301.76L69.7988 331.4H76.4888L99.5188 308.43Z" fill="white"/>
<path d="M99.5186 321.71V315.04L83.1187 331.4H89.8086L99.5186 321.71Z" fill="white"/>
<path d="M66.4087 298.37V265.23H99.5187L66.4087 298.37Z" fill="#42BD88"/>
<path d="M0.258789 397.46H66.3188V463.7L0.258789 397.46Z" fill="#F2F6FC"/>
<path d="M99.5189 425.75H33.3789V430.47H99.5189V425.75Z" fill="#3F57C9"/>
<path d="M99.5189 416.32H33.3789V421.03H99.5189V416.32Z" fill="#3F57C9"/>
<path d="M99.5189 397.46H33.3789V402.18H99.5189V397.46Z" fill="#3F57C9"/>
<path d="M99.5189 406.89H33.3789V411.6H99.5189V406.89Z" fill="#3F57C9"/>
<path d="M8.53879 455.25L16.8188 463.51L25.0988 455.25L33.3788 463.51V455.25L25.0988 446.99L16.8188 455.25L8.53879 446.99L0.258789 455.25V463.51L8.53879 455.25Z" fill="#3F57C9"/>
<path d="M16.8188 446.99L25.0988 438.74L33.3788 446.99V438.74L25.0988 430.48L16.8188 438.74L8.53879 430.48L0.258789 438.74V446.99L8.53879 438.74L16.8188 446.99Z" fill="#DCE4F0"/>
<path d="M25.0988 405.71L16.8188 397.45L8.53879 405.71L0.258789 397.45V405.71L8.53879 413.97L16.8188 405.71L25.0988 413.97L33.3788 405.71V397.45L25.0988 405.71Z" fill="#852BE0"/>
<path d="M16.8188 413.97L8.53879 422.22L0.258789 413.97V422.22L8.53879 430.48L16.8188 422.22L25.0988 430.48L33.3788 422.22V413.97L25.0988 422.22L16.8188 413.97Z" fill="#FF4D39"/>
<path d="M33.3788 463.49H0.258789V496.52H33.3788V463.49Z" fill="white"/>
<path d="M6.38889 491.69C5.67889 491.69 5.09888 491.11 5.09888 490.4C5.09888 489.69 5.67889 489.11 6.38889 489.11C7.09889 489.11 7.67889 489.69 7.67889 490.4C7.67889 491.11 7.09889 491.69 6.38889 491.69Z" fill="#FFB901"/>
<path d="M11.6089 491.69C10.8989 491.69 10.3188 491.11 10.3188 490.4C10.3188 489.69 10.8989 489.11 11.6089 489.11C12.3189 489.11 12.8989 489.69 12.8989 490.4C12.8989 491.11 12.3189 491.69 11.6089 491.69Z" fill="#FFB901"/>
<path d="M16.8188 491.69C16.1088 491.69 15.5288 491.11 15.5288 490.4C15.5288 489.69 16.1088 489.11 16.8188 489.11C17.5288 489.11 18.1088 489.69 18.1088 490.4C18.1088 491.11 17.5288 491.69 16.8188 491.69Z" fill="#FFB901"/>
<path d="M22.0287 491.69C21.3187 491.69 20.7388 491.11 20.7388 490.4C20.7388 489.69 21.3187 489.11 22.0287 489.11C22.7387 489.11 23.3188 489.69 23.3188 490.4C23.3188 491.11 22.7387 491.69 22.0287 491.69Z" fill="#FFB901"/>
<path d="M27.239 489.11C27.949 489.11 28.529 489.69 28.529 490.4C28.529 491.11 27.949 491.69 27.239 491.69C26.529 491.69 25.949 491.11 25.949 490.4C25.949 489.69 26.529 489.11 27.239 489.11Z" fill="#FFB901"/>
<path d="M6.38889 486.49C5.67889 486.49 5.09888 485.91 5.09888 485.2C5.09888 484.49 5.67889 483.91 6.38889 483.91C7.09889 483.91 7.67889 484.48 7.67889 485.2C7.67889 485.92 7.09889 486.49 6.38889 486.49Z" fill="#FFB901"/>
<path d="M11.6089 486.49C10.8989 486.49 10.3188 485.91 10.3188 485.2C10.3188 484.49 10.8989 483.91 11.6089 483.91C12.3189 483.91 12.8989 484.48 12.8989 485.2C12.8989 485.92 12.3189 486.49 11.6089 486.49Z" fill="#FFB901"/>
<path d="M16.8188 486.49C16.1088 486.49 15.5288 485.91 15.5288 485.2C15.5288 484.49 16.1088 483.91 16.8188 483.91C17.5288 483.91 18.1088 484.48 18.1088 485.2C18.1088 485.92 17.5288 486.49 16.8188 486.49Z" fill="#FFB901"/>
<path d="M22.0287 486.49C21.3187 486.49 20.7388 485.91 20.7388 485.2C20.7388 484.49 21.3187 483.91 22.0287 483.91C22.7387 483.91 23.3188 484.48 23.3188 485.2C23.3188 485.92 22.7387 486.49 22.0287 486.49Z" fill="#FFB901"/>
<path d="M27.239 486.49C26.529 486.49 25.949 485.91 25.949 485.2C25.949 484.49 26.529 483.91 27.239 483.91C27.949 483.91 28.529 484.48 28.529 485.2C28.529 485.92 27.949 486.49 27.239 486.49Z" fill="#FFB901"/>
<path d="M6.38889 481.29C5.67889 481.29 5.09888 480.71 5.09888 480C5.09888 479.29 5.67889 478.71 6.38889 478.71C7.09889 478.71 7.67889 479.29 7.67889 480C7.67889 480.71 7.09889 481.29 6.38889 481.29Z" fill="#FFB901"/>
<path d="M11.6089 481.29C10.8989 481.29 10.3188 480.71 10.3188 480C10.3188 479.29 10.8989 478.71 11.6089 478.71C12.3189 478.71 12.8989 479.29 12.8989 480C12.8989 480.71 12.3189 481.29 11.6089 481.29Z" fill="#FFB901"/>
<path d="M16.8188 481.29C16.1088 481.29 15.5288 480.71 15.5288 480C15.5288 479.29 16.1088 478.71 16.8188 478.71C17.5288 478.71 18.1088 479.29 18.1088 480C18.1088 480.71 17.5288 481.29 16.8188 481.29Z" fill="#FFB901"/>
<path d="M22.0287 481.29C21.3187 481.29 20.7388 480.71 20.7388 480C20.7388 479.29 21.3187 478.71 22.0287 478.71C22.7387 478.71 23.3188 479.29 23.3188 480C23.3188 480.71 22.7387 481.29 22.0287 481.29Z" fill="#FFB901"/>
<path d="M27.239 481.29C26.529 481.29 25.949 480.71 25.949 480C25.949 479.29 26.529 478.71 27.239 478.71C27.949 478.71 28.529 479.29 28.529 480C28.529 480.71 27.949 481.29 27.239 481.29Z" fill="#FFB901"/>
<path d="M6.38889 476.1C5.67889 476.1 5.09888 475.52 5.09888 474.81C5.09888 474.1 5.67889 473.52 6.38889 473.52C7.09889 473.52 7.67889 474.1 7.67889 474.81C7.67889 475.52 7.09889 476.1 6.38889 476.1Z" fill="#FFB901"/>
<path d="M11.6089 476.1C10.8989 476.1 10.3188 475.52 10.3188 474.81C10.3188 474.1 10.8989 473.52 11.6089 473.52C12.3189 473.52 12.8989 474.1 12.8989 474.81C12.8989 475.52 12.3189 476.1 11.6089 476.1Z" fill="#FFB901"/>
<path d="M16.8188 476.1C16.1088 476.1 15.5288 475.52 15.5288 474.81C15.5288 474.1 16.1088 473.52 16.8188 473.52C17.5288 473.52 18.1088 474.1 18.1088 474.81C18.1088 475.52 17.5288 476.1 16.8188 476.1Z" fill="#FFB901"/>
<path d="M22.0287 476.1C21.3187 476.1 20.7388 475.52 20.7388 474.81C20.7388 474.1 21.3187 473.52 22.0287 473.52C22.7387 473.52 23.3188 474.1 23.3188 474.81C23.3188 475.52 22.7387 476.1 22.0287 476.1Z" fill="#FFB901"/>
<path d="M27.239 476.1C26.529 476.1 25.949 475.52 25.949 474.81C25.949 474.1 26.529 473.52 27.239 473.52C27.949 473.52 28.529 474.1 28.529 474.81C28.529 475.52 27.949 476.1 27.239 476.1Z" fill="#FFB901"/>
<path d="M6.38889 470.9C5.67889 470.9 5.09888 470.32 5.09888 469.61C5.09888 468.9 5.67889 468.32 6.38889 468.32C7.09889 468.32 7.67889 468.9 7.67889 469.61C7.67889 470.32 7.09889 470.9 6.38889 470.9Z" fill="#FFB901"/>
<path d="M11.6089 470.9C10.8989 470.9 10.3188 470.32 10.3188 469.61C10.3188 468.9 10.8989 468.32 11.6089 468.32C12.3189 468.32 12.8989 468.9 12.8989 469.61C12.8989 470.32 12.3189 470.9 11.6089 470.9Z" fill="#FFB901"/>
<path d="M16.8188 470.9C16.1088 470.9 15.5288 470.32 15.5288 469.61C15.5288 468.9 16.1088 468.32 16.8188 468.32C17.5288 468.32 18.1088 468.9 18.1088 469.61C18.1088 470.32 17.5288 470.9 16.8188 470.9Z" fill="#FFB901"/>
<path d="M22.0287 470.9C21.3187 470.9 20.7388 470.32 20.7388 469.61C20.7388 468.9 21.3187 468.32 22.0287 468.32C22.7387 468.32 23.3188 468.9 23.3188 469.61C23.3188 470.32 22.7387 470.9 22.0287 470.9Z" fill="#FFB901"/>
<path d="M27.239 470.9C26.529 470.9 25.949 470.32 25.949 469.61C25.949 468.9 26.529 468.32 27.239 468.32C27.949 468.32 28.529 468.9 28.529 469.61C28.529 470.32 27.949 470.9 27.239 470.9Z" fill="#FFB901"/>
<path d="M99.5188 380.89C90.3988 380.89 83.0088 388.3 83.0088 397.45H66.4988C66.4988 379.16 81.2888 364.33 99.5288 364.33V380.89H99.5188Z" fill="#852BE0"/>
<path d="M33.2888 380.89C42.4088 380.89 49.7988 388.3 49.7988 397.45H66.3088C66.3088 379.16 51.5188 364.33 33.2788 364.33V380.89H33.2888Z" fill="#FF4D39"/>
<path d="M66.4087 331.4C66.4087 349.64 81.2287 364.43 99.5187 364.43V331.4H66.4087Z" fill="#FFB901"/>
<path d="M66.3988 331.4C66.3988 349.64 51.5688 364.43 33.2888 364.43V331.4H66.3988Z" fill="#2D347A"/>
<path d="M58.0288 364.43C58.0288 359.86 61.7388 356.15 66.3088 356.15C70.8788 356.15 74.5888 359.86 74.5888 364.43C74.5888 369 70.8788 372.71 66.3088 372.71C61.7388 372.71 58.0288 369 58.0288 364.43Z" fill="#DCE4F0"/>
<path d="M99.5188 430.58V496.64H33.2788L99.5188 430.58Z" fill="#DCE4F0"/>
<path d="M33.3788 364.38H0.258789V397.41H33.3788V364.38Z" fill="#2D347A"/>
<path d="M16.8189 373.58C12.9089 373.87 9.78889 376.98 9.48889 380.89H9.44888C9.14888 376.98 6.0289 373.87 2.1189 373.58V373.55C6.0289 373.26 9.14888 370.14 9.44888 366.24H9.48889C9.78889 370.15 12.9089 373.26 16.8189 373.55V373.58Z" fill="#42BD88"/>
<path d="M31.5089 373.58C27.5989 373.87 24.4789 376.98 24.1789 380.89H24.1389C23.8389 376.98 20.7188 373.87 16.8088 373.58V373.55C20.7188 373.26 23.8389 370.14 24.1389 366.24H24.1789C24.4789 370.15 27.5989 373.26 31.5089 373.55V373.58Z" fill="#42BD88"/>
<path d="M16.8189 388.24C12.9089 388.53 9.78889 391.65 9.48889 395.55H9.44888C9.14888 391.64 6.0289 388.52 2.1189 388.24V388.21C6.0289 387.92 9.14888 384.8 9.44888 380.9H9.48889C9.78889 384.81 12.9089 387.93 16.8189 388.21V388.24Z" fill="#42BD88"/>
<path d="M31.5089 388.24C27.5989 388.53 24.4789 391.65 24.1789 395.55H24.1389C23.8389 391.64 20.7188 388.52 16.8088 388.24V388.21C20.7188 387.92 23.8389 384.8 24.1389 380.9H24.1789C24.4789 384.81 27.5989 387.93 31.5089 388.21V388.24Z" fill="#42BD88"/>
<path d="M49.9389 430.48H33.3789V446.99H49.9389V430.48Z" fill="#FFB901"/>
<path d="M66.499 446.99H49.939V463.51H66.499V446.99Z" fill="#FFB901"/>
<path d="M66.4087 466.66L69.4587 463.61H66.4087V466.66Z" fill="white"/>
<path d="M82.8387 463.61H76.1487L66.4087 473.33V480.01L82.8387 463.61Z" fill="white"/>
<path d="M96.2287 463.61H89.5287L66.4087 486.68V493.35L96.2287 463.61Z" fill="white"/>
<path d="M99.5187 493.59L96.4587 496.64H99.5187V493.59Z" fill="white"/>
<path d="M99.5188 473.67V467L69.7988 496.64H76.4888L99.5188 473.67Z" fill="white"/>
<path d="M99.5186 486.95V480.28L83.1187 496.64H89.8086L99.5186 486.95Z" fill="white"/>
<path d="M66.4087 463.61V430.47H99.5187L66.4087 463.61Z" fill="#42BD88"/>
</g>
</svg>
