<svg width="211" height="231" viewBox="0 0 211 231" fill="none" xmlns="http://www.w3.org/2000/svg">
<path d="M0.171387 -49.4043L70.1014 20.4657H140.021V90.3257H210.131L210.111 -49.4043H0.171387Z" fill="#3F57C9"/>
<path d="M210.132 90.3257H140.021L210.132 160.386V90.3257Z" fill="#FFB901"/>
<path d="M280.281 160.346H210.181L280.281 230.396V160.346Z" fill="#852BE0"/>
<path d="M70.1013 20.4656L140.021 90.3256V20.4656H70.1013Z" fill="#FF4D39"/>
<path d="M210.132 90.3256L140.021 20.4656V90.3256H210.132Z" fill="#FF4D39"/>
<path d="M280.241 20.4656C280.241 59.0456 248.851 90.3256 210.131 90.3256V20.4656H280.241Z" fill="#2D347A"/>
<path d="M245.191 20.4656H210.131V55.3956H245.191V20.4656Z" fill="white"/>
<path d="M245.191 90.3257H210.131V125.256H245.191V90.3257Z" fill="#FF4D39"/>
<path d="M245.191 125.256H210.131V160.186H245.191V125.256Z" fill="#42BD88"/>
<path d="M87.6614 -31.9343L70.1914 -14.4643L87.6614 3.0057L70.1914 20.4657H87.6614L105.151 3.0057L87.6614 -14.4643L105.151 -31.9343L87.6614 -49.4043H70.1914L87.6614 -31.9343Z" fill="#FFB901"/>
<path d="M105.151 -14.4643L122.631 3.0057L105.151 20.4657H122.631L140.111 3.0057L122.631 -14.4643L140.111 -31.9343L122.631 -49.4043H105.151L122.631 -31.9343L105.151 -14.4643Z" fill="#FFB901"/>
<path d="M280.191 -49.3943H210.181V20.4757H280.191V-49.3943Z" fill="#2D347A"/>
<path d="M280.191 20.4756L210.191 -49.4844V20.4756H280.191Z" fill="#852BE0"/>
<path d="M209.771 -49.3943H174.801C174.801 -30.1043 159.151 -14.4743 139.841 -14.4743V20.4557C178.451 20.4557 209.761 -10.8243 209.761 -49.4043L209.771 -49.3943Z" fill="#FFB901"/>
</svg>
