<svg width="100" height="414" viewBox="0 0 100 414" fill="none" xmlns="http://www.w3.org/2000/svg">
<g opacity="0.12">
<path d="M0.72998 66.78H66.79V133.02L0.72998 66.78Z" fill="#F2F6FC"/>
<path d="M99.9901 95.0701H33.8501V99.7901H99.9901V95.0701Z" fill="#3F57C9"/>
<path d="M99.9901 85.6401H33.8501V90.3501H99.9901V85.6401Z" fill="#3F57C9"/>
<path d="M99.9901 66.78H33.8501V71.5H99.9901V66.78Z" fill="#3F57C9"/>
<path d="M99.9901 76.21H33.8501V80.92H99.9901V76.21Z" fill="#3F57C9"/>
<path d="M9.00998 124.57L17.29 132.83L25.57 124.57L33.85 132.83V124.57L25.57 116.31L17.29 124.57L9.00998 116.31L0.72998 124.57V132.83L9.00998 124.57Z" fill="#3F57C9"/>
<path d="M17.29 116.31L25.57 108.06L33.85 116.31V108.06L25.57 99.8L17.29 108.06L9.00998 99.8L0.72998 108.06V116.31L9.00998 108.06L17.29 116.31Z" fill="#DCE4F0"/>
<path d="M25.57 75.03L17.29 66.77L9.00998 75.03L0.72998 66.77V75.03L9.00998 83.29L17.29 75.03L25.57 83.29L33.85 75.03V66.77L25.57 75.03Z" fill="#852BE0"/>
<path d="M17.29 83.29L9.00998 91.54L0.72998 83.29V91.54L9.00998 99.8L17.29 91.54L25.57 99.8L33.85 91.54V83.29L25.57 91.54L17.29 83.29Z" fill="#FF4D39"/>
<path d="M33.85 132.81H0.72998V165.84H33.85V132.81Z" fill="white"/>
<path d="M6.86008 161.01C6.15008 161.01 5.57007 160.43 5.57007 159.72C5.57007 159.01 6.15008 158.43 6.86008 158.43C7.57008 158.43 8.15009 159.01 8.15009 159.72C8.15009 160.43 7.57008 161.01 6.86008 161.01Z" fill="#FFB901"/>
<path d="M12.08 161.01C11.37 161.01 10.79 160.43 10.79 159.72C10.79 159.01 11.37 158.43 12.08 158.43C12.79 158.43 13.3701 159.01 13.3701 159.72C13.3701 160.43 12.79 161.01 12.08 161.01Z" fill="#FFB901"/>
<path d="M17.29 161.01C16.58 161.01 16 160.43 16 159.72C16 159.01 16.58 158.43 17.29 158.43C18 158.43 18.58 159.01 18.58 159.72C18.58 160.43 18 161.01 17.29 161.01Z" fill="#FFB901"/>
<path d="M22.4999 161.01C21.7899 161.01 21.21 160.43 21.21 159.72C21.21 159.01 21.7899 158.43 22.4999 158.43C23.2099 158.43 23.7899 159.01 23.7899 159.72C23.7899 160.43 23.2099 161.01 22.4999 161.01Z" fill="#FFB901"/>
<path d="M27.7102 158.43C28.4202 158.43 29.0002 159.01 29.0002 159.72C29.0002 160.43 28.4202 161.01 27.7102 161.01C27.0002 161.01 26.4202 160.43 26.4202 159.72C26.4202 159.01 27.0002 158.43 27.7102 158.43Z" fill="#FFB901"/>
<path d="M6.86008 155.81C6.15008 155.81 5.57007 155.23 5.57007 154.52C5.57007 153.81 6.15008 153.23 6.86008 153.23C7.57008 153.23 8.15009 153.8 8.15009 154.52C8.15009 155.24 7.57008 155.81 6.86008 155.81Z" fill="#FFB901"/>
<path d="M12.08 155.81C11.37 155.81 10.79 155.23 10.79 154.52C10.79 153.81 11.37 153.23 12.08 153.23C12.79 153.23 13.3701 153.8 13.3701 154.52C13.3701 155.24 12.79 155.81 12.08 155.81Z" fill="#FFB901"/>
<path d="M17.29 155.81C16.58 155.81 16 155.23 16 154.52C16 153.81 16.58 153.23 17.29 153.23C18 153.23 18.58 153.8 18.58 154.52C18.58 155.24 18 155.81 17.29 155.81Z" fill="#FFB901"/>
<path d="M22.4999 155.81C21.7899 155.81 21.21 155.23 21.21 154.52C21.21 153.81 21.7899 153.23 22.4999 153.23C23.2099 153.23 23.7899 153.8 23.7899 154.52C23.7899 155.24 23.2099 155.81 22.4999 155.81Z" fill="#FFB901"/>
<path d="M27.7102 155.81C27.0002 155.81 26.4202 155.23 26.4202 154.52C26.4202 153.81 27.0002 153.23 27.7102 153.23C28.4202 153.23 29.0002 153.8 29.0002 154.52C29.0002 155.24 28.4202 155.81 27.7102 155.81Z" fill="#FFB901"/>
<path d="M6.86008 150.61C6.15008 150.61 5.57007 150.03 5.57007 149.32C5.57007 148.61 6.15008 148.03 6.86008 148.03C7.57008 148.03 8.15009 148.61 8.15009 149.32C8.15009 150.03 7.57008 150.61 6.86008 150.61Z" fill="#FFB901"/>
<path d="M12.08 150.61C11.37 150.61 10.79 150.03 10.79 149.32C10.79 148.61 11.37 148.03 12.08 148.03C12.79 148.03 13.3701 148.61 13.3701 149.32C13.3701 150.03 12.79 150.61 12.08 150.61Z" fill="#FFB901"/>
<path d="M17.29 150.61C16.58 150.61 16 150.03 16 149.32C16 148.61 16.58 148.03 17.29 148.03C18 148.03 18.58 148.61 18.58 149.32C18.58 150.03 18 150.61 17.29 150.61Z" fill="#FFB901"/>
<path d="M22.4999 150.61C21.7899 150.61 21.21 150.03 21.21 149.32C21.21 148.61 21.7899 148.03 22.4999 148.03C23.2099 148.03 23.7899 148.61 23.7899 149.32C23.7899 150.03 23.2099 150.61 22.4999 150.61Z" fill="#FFB901"/>
<path d="M27.7102 150.61C27.0002 150.61 26.4202 150.03 26.4202 149.32C26.4202 148.61 27.0002 148.03 27.7102 148.03C28.4202 148.03 29.0002 148.61 29.0002 149.32C29.0002 150.03 28.4202 150.61 27.7102 150.61Z" fill="#FFB901"/>
<path d="M6.86008 145.42C6.15008 145.42 5.57007 144.84 5.57007 144.13C5.57007 143.42 6.15008 142.84 6.86008 142.84C7.57008 142.84 8.15009 143.42 8.15009 144.13C8.15009 144.84 7.57008 145.42 6.86008 145.42Z" fill="#FFB901"/>
<path d="M12.08 145.42C11.37 145.42 10.79 144.84 10.79 144.13C10.79 143.42 11.37 142.84 12.08 142.84C12.79 142.84 13.3701 143.42 13.3701 144.13C13.3701 144.84 12.79 145.42 12.08 145.42Z" fill="#FFB901"/>
<path d="M17.29 145.42C16.58 145.42 16 144.84 16 144.13C16 143.42 16.58 142.84 17.29 142.84C18 142.84 18.58 143.42 18.58 144.13C18.58 144.84 18 145.42 17.29 145.42Z" fill="#FFB901"/>
<path d="M22.4999 145.42C21.7899 145.42 21.21 144.84 21.21 144.13C21.21 143.42 21.7899 142.84 22.4999 142.84C23.2099 142.84 23.7899 143.42 23.7899 144.13C23.7899 144.84 23.2099 145.42 22.4999 145.42Z" fill="#FFB901"/>
<path d="M27.7102 145.42C27.0002 145.42 26.4202 144.84 26.4202 144.13C26.4202 143.42 27.0002 142.84 27.7102 142.84C28.4202 142.84 29.0002 143.42 29.0002 144.13C29.0002 144.84 28.4202 145.42 27.7102 145.42Z" fill="#FFB901"/>
<path d="M6.86008 140.22C6.15008 140.22 5.57007 139.64 5.57007 138.93C5.57007 138.22 6.15008 137.64 6.86008 137.64C7.57008 137.64 8.15009 138.22 8.15009 138.93C8.15009 139.64 7.57008 140.22 6.86008 140.22Z" fill="#FFB901"/>
<path d="M12.08 140.22C11.37 140.22 10.79 139.64 10.79 138.93C10.79 138.22 11.37 137.64 12.08 137.64C12.79 137.64 13.3701 138.22 13.3701 138.93C13.3701 139.64 12.79 140.22 12.08 140.22Z" fill="#FFB901"/>
<path d="M17.29 140.22C16.58 140.22 16 139.64 16 138.93C16 138.22 16.58 137.64 17.29 137.64C18 137.64 18.58 138.22 18.58 138.93C18.58 139.64 18 140.22 17.29 140.22Z" fill="#FFB901"/>
<path d="M22.4999 140.22C21.7899 140.22 21.21 139.64 21.21 138.93C21.21 138.22 21.7899 137.64 22.4999 137.64C23.2099 137.64 23.7899 138.22 23.7899 138.93C23.7899 139.64 23.2099 140.22 22.4999 140.22Z" fill="#FFB901"/>
<path d="M27.7102 140.22C27.0002 140.22 26.4202 139.64 26.4202 138.93C26.4202 138.22 27.0002 137.64 27.7102 137.64C28.4202 137.64 29.0002 138.22 29.0002 138.93C29.0002 139.64 28.4202 140.22 27.7102 140.22Z" fill="#FFB901"/>
<path d="M99.99 50.2099C90.87 50.2099 83.48 57.6199 83.48 66.7699H66.97C66.97 48.4799 81.76 33.6499 100 33.6499V50.2099H99.99Z" fill="#852BE0"/>
<path d="M33.76 50.2099C42.88 50.2099 50.27 57.6199 50.27 66.7699H66.78C66.78 48.4799 51.99 33.6499 33.75 33.6499V50.2099H33.76Z" fill="#FF4D39"/>
<path d="M66.8799 0.719971C66.8799 18.96 81.6999 33.75 99.9899 33.75V0.719971H66.8799Z" fill="#FFB901"/>
<path d="M66.87 0.719971C66.87 18.96 52.04 33.75 33.76 33.75V0.719971H66.87Z" fill="#2D347A"/>
<path d="M58.5 33.75C58.5 29.18 62.21 25.47 66.78 25.47C71.35 25.47 75.06 29.18 75.06 33.75C75.06 38.32 71.35 42.03 66.78 42.03C62.21 42.03 58.5 38.32 58.5 33.75Z" fill="#DCE4F0"/>
<path d="M99.99 99.8999V165.96H33.75L99.99 99.8999Z" fill="#DCE4F0"/>
<path d="M33.85 33.7H0.72998V66.7299H33.85V33.7Z" fill="#2D347A"/>
<path d="M17.2901 42.9001C13.3801 43.1901 10.2601 46.3001 9.96008 50.2101H9.92007C9.62007 46.3001 6.50009 43.1901 2.59009 42.9001V42.8701C6.50009 42.5801 9.62007 39.4601 9.92007 35.5601H9.96008C10.2601 39.4701 13.3801 42.5801 17.2901 42.8701V42.9001Z" fill="#42BD88"/>
<path d="M31.98 42.9001C28.07 43.1901 24.9501 46.3001 24.6501 50.2101H24.61C24.31 46.3001 21.19 43.1901 17.28 42.9001V42.8701C21.19 42.5801 24.31 39.4601 24.61 35.5601H24.6501C24.9501 39.4701 28.07 42.5801 31.98 42.8701V42.9001Z" fill="#42BD88"/>
<path d="M17.2901 57.56C13.3801 57.85 10.2601 60.97 9.96008 64.87H9.92007C9.62007 60.96 6.50009 57.84 2.59009 57.56V57.53C6.50009 57.24 9.62007 54.12 9.92007 50.22H9.96008C10.2601 54.13 13.3801 57.25 17.2901 57.53V57.56Z" fill="#42BD88"/>
<path d="M31.98 57.56C28.07 57.85 24.9501 60.97 24.6501 64.87H24.61C24.31 60.96 21.19 57.84 17.28 57.56V57.53C21.19 57.24 24.31 54.12 24.61 50.22H24.6501C24.9501 54.13 28.07 57.25 31.98 57.53V57.56Z" fill="#42BD88"/>
<path d="M50.4101 99.8H33.8501V116.31H50.4101V99.8Z" fill="#FFB901"/>
<path d="M66.9702 116.31H50.4102V132.83H66.9702V116.31Z" fill="#FFB901"/>
<path d="M66.8799 135.98L69.9299 132.93H66.8799V135.98Z" fill="white"/>
<path d="M83.3099 132.93H76.6199L66.8799 142.65V149.33L83.3099 132.93Z" fill="white"/>
<path d="M96.6999 132.93H89.9999L66.8799 156V162.67L96.6999 132.93Z" fill="white"/>
<path d="M99.9899 162.91L96.9299 165.96H99.9899V162.91Z" fill="white"/>
<path d="M99.99 142.99V136.32L70.27 165.96H76.96L99.99 142.99Z" fill="white"/>
<path d="M99.9898 156.27V149.6L83.5898 165.96H90.2798L99.9898 156.27Z" fill="white"/>
<path d="M66.8799 132.93V99.79H99.9899L66.8799 132.93Z" fill="#42BD88"/>
<path d="M0.72998 232.02H66.79V298.26L0.72998 232.02Z" fill="#F2F6FC"/>
<path d="M99.9901 260.31H33.8501V265.03H99.9901V260.31Z" fill="#3F57C9"/>
<path d="M99.9901 250.88H33.8501V255.59H99.9901V250.88Z" fill="#3F57C9"/>
<path d="M99.9901 232.02H33.8501V236.74H99.9901V232.02Z" fill="#3F57C9"/>
<path d="M99.9901 241.45H33.8501V246.16H99.9901V241.45Z" fill="#3F57C9"/>
<path d="M9.00998 289.81L17.29 298.07L25.57 289.81L33.85 298.07V289.81L25.57 281.55L17.29 289.81L9.00998 281.55L0.72998 289.81V298.07L9.00998 289.81Z" fill="#3F57C9"/>
<path d="M17.29 281.55L25.57 273.3L33.85 281.55V273.3L25.57 265.04L17.29 273.3L9.00998 265.04L0.72998 273.3V281.55L9.00998 273.3L17.29 281.55Z" fill="#DCE4F0"/>
<path d="M25.57 240.27L17.29 232.01L9.00998 240.27L0.72998 232.01V240.27L9.00998 248.53L17.29 240.27L25.57 248.53L33.85 240.27V232.01L25.57 240.27Z" fill="#852BE0"/>
<path d="M17.29 248.53L9.00998 256.78L0.72998 248.53V256.78L9.00998 265.04L17.29 256.78L25.57 265.04L33.85 256.78V248.53L25.57 256.78L17.29 248.53Z" fill="#FF4D39"/>
<path d="M33.85 298.05H0.72998V331.08H33.85V298.05Z" fill="white"/>
<path d="M6.86008 326.25C6.15008 326.25 5.57007 325.67 5.57007 324.96C5.57007 324.25 6.15008 323.67 6.86008 323.67C7.57008 323.67 8.15009 324.25 8.15009 324.96C8.15009 325.67 7.57008 326.25 6.86008 326.25Z" fill="#FFB901"/>
<path d="M12.08 326.25C11.37 326.25 10.79 325.67 10.79 324.96C10.79 324.25 11.37 323.67 12.08 323.67C12.79 323.67 13.3701 324.25 13.3701 324.96C13.3701 325.67 12.79 326.25 12.08 326.25Z" fill="#FFB901"/>
<path d="M17.29 326.25C16.58 326.25 16 325.67 16 324.96C16 324.25 16.58 323.67 17.29 323.67C18 323.67 18.58 324.25 18.58 324.96C18.58 325.67 18 326.25 17.29 326.25Z" fill="#FFB901"/>
<path d="M22.4999 326.25C21.7899 326.25 21.21 325.67 21.21 324.96C21.21 324.25 21.7899 323.67 22.4999 323.67C23.2099 323.67 23.7899 324.25 23.7899 324.96C23.7899 325.67 23.2099 326.25 22.4999 326.25Z" fill="#FFB901"/>
<path d="M27.7102 323.67C28.4202 323.67 29.0002 324.25 29.0002 324.96C29.0002 325.67 28.4202 326.25 27.7102 326.25C27.0002 326.25 26.4202 325.67 26.4202 324.96C26.4202 324.25 27.0002 323.67 27.7102 323.67Z" fill="#FFB901"/>
<path d="M6.86008 321.05C6.15008 321.05 5.57007 320.47 5.57007 319.76C5.57007 319.05 6.15008 318.47 6.86008 318.47C7.57008 318.47 8.15009 319.04 8.15009 319.76C8.15009 320.48 7.57008 321.05 6.86008 321.05Z" fill="#FFB901"/>
<path d="M12.08 321.05C11.37 321.05 10.79 320.47 10.79 319.76C10.79 319.05 11.37 318.47 12.08 318.47C12.79 318.47 13.3701 319.04 13.3701 319.76C13.3701 320.48 12.79 321.05 12.08 321.05Z" fill="#FFB901"/>
<path d="M17.29 321.05C16.58 321.05 16 320.47 16 319.76C16 319.05 16.58 318.47 17.29 318.47C18 318.47 18.58 319.04 18.58 319.76C18.58 320.48 18 321.05 17.29 321.05Z" fill="#FFB901"/>
<path d="M22.4999 321.05C21.7899 321.05 21.21 320.47 21.21 319.76C21.21 319.05 21.7899 318.47 22.4999 318.47C23.2099 318.47 23.7899 319.04 23.7899 319.76C23.7899 320.48 23.2099 321.05 22.4999 321.05Z" fill="#FFB901"/>
<path d="M27.7102 321.05C27.0002 321.05 26.4202 320.47 26.4202 319.76C26.4202 319.05 27.0002 318.47 27.7102 318.47C28.4202 318.47 29.0002 319.04 29.0002 319.76C29.0002 320.48 28.4202 321.05 27.7102 321.05Z" fill="#FFB901"/>
<path d="M6.86008 315.85C6.15008 315.85 5.57007 315.27 5.57007 314.56C5.57007 313.85 6.15008 313.27 6.86008 313.27C7.57008 313.27 8.15009 313.85 8.15009 314.56C8.15009 315.27 7.57008 315.85 6.86008 315.85Z" fill="#FFB901"/>
<path d="M12.08 315.85C11.37 315.85 10.79 315.27 10.79 314.56C10.79 313.85 11.37 313.27 12.08 313.27C12.79 313.27 13.3701 313.85 13.3701 314.56C13.3701 315.27 12.79 315.85 12.08 315.85Z" fill="#FFB901"/>
<path d="M17.29 315.85C16.58 315.85 16 315.27 16 314.56C16 313.85 16.58 313.27 17.29 313.27C18 313.27 18.58 313.85 18.58 314.56C18.58 315.27 18 315.85 17.29 315.85Z" fill="#FFB901"/>
<path d="M22.4999 315.85C21.7899 315.85 21.21 315.27 21.21 314.56C21.21 313.85 21.7899 313.27 22.4999 313.27C23.2099 313.27 23.7899 313.85 23.7899 314.56C23.7899 315.27 23.2099 315.85 22.4999 315.85Z" fill="#FFB901"/>
<path d="M27.7102 315.85C27.0002 315.85 26.4202 315.27 26.4202 314.56C26.4202 313.85 27.0002 313.27 27.7102 313.27C28.4202 313.27 29.0002 313.85 29.0002 314.56C29.0002 315.27 28.4202 315.85 27.7102 315.85Z" fill="#FFB901"/>
<path d="M6.86008 310.66C6.15008 310.66 5.57007 310.08 5.57007 309.37C5.57007 308.66 6.15008 308.08 6.86008 308.08C7.57008 308.08 8.15009 308.66 8.15009 309.37C8.15009 310.08 7.57008 310.66 6.86008 310.66Z" fill="#FFB901"/>
<path d="M12.08 310.66C11.37 310.66 10.79 310.08 10.79 309.37C10.79 308.66 11.37 308.08 12.08 308.08C12.79 308.08 13.3701 308.66 13.3701 309.37C13.3701 310.08 12.79 310.66 12.08 310.66Z" fill="#FFB901"/>
<path d="M17.29 310.66C16.58 310.66 16 310.08 16 309.37C16 308.66 16.58 308.08 17.29 308.08C18 308.08 18.58 308.66 18.58 309.37C18.58 310.08 18 310.66 17.29 310.66Z" fill="#FFB901"/>
<path d="M22.4999 310.66C21.7899 310.66 21.21 310.08 21.21 309.37C21.21 308.66 21.7899 308.08 22.4999 308.08C23.2099 308.08 23.7899 308.66 23.7899 309.37C23.7899 310.08 23.2099 310.66 22.4999 310.66Z" fill="#FFB901"/>
<path d="M27.7102 310.66C27.0002 310.66 26.4202 310.08 26.4202 309.37C26.4202 308.66 27.0002 308.08 27.7102 308.08C28.4202 308.08 29.0002 308.66 29.0002 309.37C29.0002 310.08 28.4202 310.66 27.7102 310.66Z" fill="#FFB901"/>
<path d="M6.86008 305.46C6.15008 305.46 5.57007 304.88 5.57007 304.17C5.57007 303.46 6.15008 302.88 6.86008 302.88C7.57008 302.88 8.15009 303.46 8.15009 304.17C8.15009 304.88 7.57008 305.46 6.86008 305.46Z" fill="#FFB901"/>
<path d="M12.08 305.46C11.37 305.46 10.79 304.88 10.79 304.17C10.79 303.46 11.37 302.88 12.08 302.88C12.79 302.88 13.3701 303.46 13.3701 304.17C13.3701 304.88 12.79 305.46 12.08 305.46Z" fill="#FFB901"/>
<path d="M17.29 305.46C16.58 305.46 16 304.88 16 304.17C16 303.46 16.58 302.88 17.29 302.88C18 302.88 18.58 303.46 18.58 304.17C18.58 304.88 18 305.46 17.29 305.46Z" fill="#FFB901"/>
<path d="M22.4999 305.46C21.7899 305.46 21.21 304.88 21.21 304.17C21.21 303.46 21.7899 302.88 22.4999 302.88C23.2099 302.88 23.7899 303.46 23.7899 304.17C23.7899 304.88 23.2099 305.46 22.4999 305.46Z" fill="#FFB901"/>
<path d="M27.7102 305.46C27.0002 305.46 26.4202 304.88 26.4202 304.17C26.4202 303.46 27.0002 302.88 27.7102 302.88C28.4202 302.88 29.0002 303.46 29.0002 304.17C29.0002 304.88 28.4202 305.46 27.7102 305.46Z" fill="#FFB901"/>
<path d="M99.99 215.45C90.87 215.45 83.48 222.86 83.48 232.01H66.97C66.97 213.72 81.76 198.89 100 198.89V215.45H99.99Z" fill="#852BE0"/>
<path d="M33.76 215.45C42.88 215.45 50.27 222.86 50.27 232.01H66.78C66.78 213.72 51.99 198.89 33.75 198.89V215.45H33.76Z" fill="#FF4D39"/>
<path d="M66.8799 165.96C66.8799 184.2 81.6999 198.99 99.9899 198.99V165.96H66.8799Z" fill="#FFB901"/>
<path d="M66.87 165.96C66.87 184.2 52.04 198.99 33.76 198.99V165.96H66.87Z" fill="#2D347A"/>
<path d="M58.5 198.99C58.5 194.42 62.21 190.71 66.78 190.71C71.35 190.71 75.06 194.42 75.06 198.99C75.06 203.56 71.35 207.27 66.78 207.27C62.21 207.27 58.5 203.56 58.5 198.99Z" fill="#DCE4F0"/>
<path d="M99.99 265.14V331.2H33.75L99.99 265.14Z" fill="#DCE4F0"/>
<path d="M33.85 198.94H0.72998V231.97H33.85V198.94Z" fill="#2D347A"/>
<path d="M17.2901 208.14C13.3801 208.43 10.2601 211.54 9.96008 215.45H9.92007C9.62007 211.54 6.50009 208.43 2.59009 208.14V208.11C6.50009 207.82 9.62007 204.7 9.92007 200.8H9.96008C10.2601 204.71 13.3801 207.82 17.2901 208.11V208.14Z" fill="#42BD88"/>
<path d="M31.98 208.14C28.07 208.43 24.9501 211.54 24.6501 215.45H24.61C24.31 211.54 21.19 208.43 17.28 208.14V208.11C21.19 207.82 24.31 204.7 24.61 200.8H24.6501C24.9501 204.71 28.07 207.82 31.98 208.11V208.14Z" fill="#42BD88"/>
<path d="M17.2901 222.8C13.3801 223.09 10.2601 226.21 9.96008 230.11H9.92007C9.62007 226.2 6.50009 223.08 2.59009 222.8V222.77C6.50009 222.48 9.62007 219.36 9.92007 215.46H9.96008C10.2601 219.37 13.3801 222.49 17.2901 222.77V222.8Z" fill="#42BD88"/>
<path d="M31.98 222.8C28.07 223.09 24.9501 226.21 24.6501 230.11H24.61C24.31 226.2 21.19 223.08 17.28 222.8V222.77C21.19 222.48 24.31 219.36 24.61 215.46H24.6501C24.9501 219.37 28.07 222.49 31.98 222.77V222.8Z" fill="#42BD88"/>
<path d="M50.4101 265.04H33.8501V281.55H50.4101V265.04Z" fill="#FFB901"/>
<path d="M66.9702 281.55H50.4102V298.07H66.9702V281.55Z" fill="#FFB901"/>
<path d="M66.8799 301.22L69.9299 298.17H66.8799V301.22Z" fill="white"/>
<path d="M83.3099 298.17H76.6199L66.8799 307.89V314.57L83.3099 298.17Z" fill="white"/>
<path d="M96.6999 298.17H89.9999L66.8799 321.24V327.91L96.6999 298.17Z" fill="white"/>
<path d="M99.9899 328.15L96.9299 331.2H99.9899V328.15Z" fill="white"/>
<path d="M99.99 308.23V301.56L70.27 331.2H76.96L99.99 308.23Z" fill="white"/>
<path d="M99.9898 321.51V314.84L83.5898 331.2H90.2798L99.9898 321.51Z" fill="white"/>
<path d="M66.8799 298.17V265.03H99.9899L66.8799 298.17Z" fill="#42BD88"/>
<path d="M0.72998 397.26H66.79V463.5L0.72998 397.26Z" fill="#F2F6FC"/>
<path d="M99.9901 397.26H33.8501V401.98H99.9901V397.26Z" fill="#3F57C9"/>
<path d="M99.9901 406.69H33.8501V411.4H99.9901V406.69Z" fill="#3F57C9"/>
<path d="M25.57 405.51L17.29 397.25L9.00998 405.51L0.72998 397.25V405.51L9.00998 413.77L17.29 405.51L25.57 413.77L33.85 405.51V397.25L25.57 405.51Z" fill="#852BE0"/>
<path d="M17.29 413.77L9.00998 422.02L0.72998 413.77V422.02L9.00998 430.28L17.29 422.02L25.57 430.28L33.85 422.02V413.77L25.57 422.02L17.29 413.77Z" fill="#FF4D39"/>
<path d="M99.99 380.69C90.87 380.69 83.48 388.1 83.48 397.25H66.97C66.97 378.96 81.76 364.13 100 364.13V380.69H99.99Z" fill="#852BE0"/>
<path d="M33.76 380.69C42.88 380.69 50.27 388.1 50.27 397.25H66.78C66.78 378.96 51.99 364.13 33.75 364.13V380.69H33.76Z" fill="#FF4D39"/>
<path d="M66.8799 331.2C66.8799 349.44 81.6999 364.23 99.9899 364.23V331.2H66.8799Z" fill="#FFB901"/>
<path d="M66.87 331.2C66.87 349.44 52.04 364.23 33.76 364.23V331.2H66.87Z" fill="#2D347A"/>
<path d="M58.5 364.23C58.5 359.66 62.21 355.95 66.78 355.95C71.35 355.95 75.06 359.66 75.06 364.23C75.06 368.8 71.35 372.51 66.78 372.51C62.21 372.51 58.5 368.8 58.5 364.23Z" fill="#DCE4F0"/>
<path d="M33.85 364.18H0.72998V397.21H33.85V364.18Z" fill="#2D347A"/>
<path d="M17.2901 373.38C13.3801 373.67 10.2601 376.78 9.96008 380.69H9.92007C9.62007 376.78 6.50009 373.67 2.59009 373.38V373.35C6.50009 373.06 9.62007 369.94 9.92007 366.04H9.96008C10.2601 369.95 13.3801 373.06 17.2901 373.35V373.38Z" fill="#42BD88"/>
<path d="M31.98 373.38C28.07 373.67 24.9501 376.78 24.6501 380.69H24.61C24.31 376.78 21.19 373.67 17.28 373.38V373.35C21.19 373.06 24.31 369.94 24.61 366.04H24.6501C24.9501 369.95 28.07 373.06 31.98 373.35V373.38Z" fill="#42BD88"/>
<path d="M17.2901 388.04C13.3801 388.33 10.2601 391.45 9.96008 395.35H9.92007C9.62007 391.44 6.50009 388.32 2.59009 388.04V388.01C6.50009 387.72 9.62007 384.6 9.92007 380.7H9.96008C10.2601 384.61 13.3801 387.73 17.2901 388.01V388.04Z" fill="#42BD88"/>
<path d="M31.98 388.04C28.07 388.33 24.9501 391.45 24.6501 395.35H24.61C24.31 391.44 21.19 388.32 17.28 388.04V388.01C21.19 387.72 24.31 384.6 24.61 380.7H24.6501C24.9501 384.61 28.07 387.73 31.98 388.01V388.04Z" fill="#42BD88"/>
</g>
</svg>
